<svg width="1440" height="865" viewBox="0 0 1440 865" fill="none" xmlns="http://www.w3.org/2000/svg">
<rect x="-4" width="1451" height="865" fill="#A1ADCB"/>
<path d="M202.469 184.086C257.659 175.092 303.783 195.209 338.578 228.516C350.034 239.482 360.294 251.896 369.323 265.229C380.89 254.284 393.104 243.982 405.765 234.621C441.711 208.047 482.081 188.452 522.097 184L524.861 208.847C490.712 212.646 454.466 229.708 420.628 254.724C407.371 264.524 394.61 275.454 382.626 287.108C394.073 308.119 402.768 330.541 408.586 352.654C420.299 397.178 420.971 442.905 406.457 474.618C399.049 490.805 387.336 503.986 370.6 510.506C353.956 516.991 334.286 516.129 312.372 508.172C296.099 502.264 284.184 492.18 276.996 478.677C269.935 465.414 268.005 449.94 269.495 433.95C272.45 402.237 289.108 365.452 313.113 330.62C324.247 314.465 337.135 298.478 351.321 283.327C342.57 269.798 332.528 257.332 321.291 246.575C291.072 217.649 252.551 201.255 206.491 208.761C133.707 220.622 98.4548 282.839 90.4929 359.844C82.5336 436.824 105.338 498.833 138.501 548.814C189.352 625.453 264.537 645.86 338.578 629.652C412.878 613.387 448.722 536.977 476.189 445.5C501.721 360.469 609.067 367.316 695.654 356.628C781.974 345.973 885.071 364.352 979.05 398.742C1037.45 420.112 1093.01 447.916 1139.37 479.406C1138.8 473.736 1138.07 467.877 1137.22 461.841C1134.11 439.602 1129.96 418.381 1126.32 394.14C1119.43 348.271 1115.47 298.371 1136.76 258.356C1158.78 216.97 1205.36 189.98 1289.58 183.955L1291.37 208.892C1211.34 214.617 1175.11 239.514 1158.83 270.099C1141.83 302.054 1144.1 344.21 1151.05 390.427C1154.32 412.229 1159 437.059 1161.98 458.371C1163.89 471.971 1165.33 485.475 1165.66 498.433C1183.13 511.943 1198.84 525.985 1212.34 540.368C1238.72 568.482 1257.43 598.739 1263.51 629.652C1269.72 661.168 1262.55 692.275 1239.28 720.474C1209.63 756.405 1174.88 768.034 1141.47 762.93C1109 757.969 1079.75 737.525 1058.83 713.187C1038.05 689.001 1023.69 658.843 1023.55 632.309C1023.49 618.765 1027.16 605.464 1036.47 594.945C1045.8 584.402 1059.51 578.097 1076.7 576.102C1100.72 573.314 1115.28 566.089 1124.28 556.966C1133.26 547.853 1138.18 535.36 1139.95 519.076C1140.25 516.406 1140.45 513.661 1140.57 510.843C1093.73 476.519 1034.28 445.573 970.459 422.219C878.762 388.664 779.817 371.429 698.717 381.44C617.883 391.417 521.66 382.363 500 454.5C469.967 554.523 434.64 634.381 351.321 652.62C267.744 670.916 174.523 648.322 117.669 562.635C80.8308 507.116 57.1637 439.115 65.6258 357.273C74.0852 275.455 113.254 198.625 202.469 184.086ZM1163.81 529.028C1160.96 546.058 1154.54 561.879 1142.07 574.522C1127.86 588.929 1107.26 597.723 1079.58 600.935C1066.85 602.412 1059.45 606.696 1055.19 611.511C1050.91 616.349 1048.51 623.175 1048.55 632.181C1048.65 650.746 1059.3 675.376 1077.79 696.892C1096.15 718.255 1120.44 734.425 1145.25 738.216C1169.12 741.864 1195.39 734.382 1220 704.563C1238.6 682.02 1243.71 658.493 1238.98 634.48C1234.14 609.862 1218.71 583.692 1194.11 557.475C1185.09 547.86 1174.94 538.352 1163.81 529.028ZM364.358 306.089C353.082 318.607 342.762 331.654 333.698 344.807C310.859 377.947 296.781 410.585 294.387 436.269C293.203 448.976 294.946 459.194 299.064 466.93C303.055 474.426 309.826 480.65 320.905 484.673C338.99 491.24 352.144 490.866 361.524 487.211C370.813 483.592 378.327 476.007 383.724 464.214C394.821 439.968 395.421 400.876 384.408 359.014C379.69 341.079 372.951 323.092 364.358 306.089Z" fill="white" stroke="black" stroke-width="4"/>
<rect x="495" y="172" width="52" height="56" fill="black" stroke="black" stroke-width="4"/>
<rect x="1269" y="170" width="52" height="56" fill="black" stroke="black" stroke-width="4"/>
<rect x="524.73" y="139" width="405" height="667" rx="16" fill="#A1ADCB" stroke="black" stroke-width="4"/>
<rect x="1296.73" y="69" width="280" height="538" fill="white" stroke="black" stroke-width="4"/>
<rect x="1338.73" y="146" width="280" height="387" stroke="black" stroke-width="4" stroke-dasharray="20 20"/>
<rect x="1296.73" y="570" width="307" height="37" fill="#A1ADCB" stroke="black" stroke-width="4"/>
<rect x="1296.73" y="69" width="307" height="37" fill="#A1ADCB" stroke="black" stroke-width="4"/>
<rect x="554" y="168" width="348" height="612" fill="white" stroke="black" stroke-width="4"/>
<rect x="569.73" y="184" width="316" height="388" fill="#A1ADCB" stroke="black" stroke-width="4"/>
<path d="M597.852 507.873C600.304 504.334 604.567 502.937 608.689 503.473C612.816 504.011 616.869 506.488 618.951 510.781L618.501 511L618.051 511.218C616.132 507.261 612.39 504.963 608.561 504.465C604.727 503.966 600.87 505.273 598.674 508.442C596.48 511.608 595.849 516.772 598.776 524.177C601.703 531.58 608.164 541.15 620.019 553.018L619.312 553.725C607.407 541.807 600.842 532.124 597.846 524.544C594.85 516.965 595.397 511.415 597.852 507.873Z" fill="black"/>
<path d="M597.852 507.873L596.208 506.734L596.208 506.734L597.852 507.873ZM608.689 503.473L608.948 501.49L608.948 501.49L608.689 503.473ZM618.951 510.781L619.825 512.58L621.623 511.707L620.751 509.908L618.951 510.781ZM618.501 511L619.372 512.8L619.375 512.799L618.501 511ZM618.051 511.218L616.251 512.09L617.123 513.888L618.922 513.018L618.051 511.218ZM608.561 504.465L608.819 502.481L608.819 502.481L608.561 504.465ZM598.674 508.442L597.03 507.303L597.03 507.303L598.674 508.442ZM598.776 524.177L596.916 524.912L596.916 524.912L598.776 524.177ZM620.019 553.018L621.433 554.433L622.846 553.019L621.434 551.605L620.019 553.018ZM619.312 553.725L617.896 555.139L619.311 556.555L620.726 555.14L619.312 553.725ZM597.846 524.544L595.986 525.279L595.986 525.279L597.846 524.544ZM597.852 507.873L599.495 509.012C601.435 506.214 604.885 504.995 608.431 505.457L608.689 503.473L608.948 501.49C604.248 500.878 599.174 502.454 596.208 506.734L597.852 507.873ZM608.689 503.473L608.431 505.457C611.965 505.917 615.396 508.033 617.152 511.654L618.951 510.781L620.751 509.908C618.343 504.944 613.666 502.104 608.948 501.49L608.689 503.473ZM618.951 510.781L618.077 508.982L617.627 509.201L618.501 511L619.375 512.799L619.825 512.58L618.951 510.781ZM618.501 511L617.63 509.199L617.18 509.417L618.051 511.218L618.922 513.018L619.372 512.8L618.501 511ZM618.051 511.218L619.85 510.345C617.606 505.717 613.242 503.057 608.819 502.481L608.561 504.465L608.302 506.448C611.539 506.869 614.658 508.805 616.251 512.09L618.051 511.218ZM608.561 504.465L608.819 502.481C604.406 501.907 599.738 503.395 597.03 507.303L598.674 508.442L600.318 509.581C602.001 507.152 605.048 506.024 608.302 506.448L608.561 504.465ZM598.674 508.442L597.03 507.303C594.314 511.222 593.851 517.158 596.916 524.912L598.776 524.177L600.636 523.441C597.847 516.386 598.646 511.994 600.318 509.581L598.674 508.442ZM598.776 524.177L596.916 524.912C599.983 532.669 606.65 542.464 618.604 554.432L620.019 553.018L621.434 551.605C609.678 539.835 603.423 530.49 600.636 523.441L598.776 524.177ZM620.019 553.018L618.604 551.604L617.897 552.311L619.312 553.725L620.726 555.14L621.433 554.433L620.019 553.018ZM619.312 553.725L620.727 552.312C608.921 540.493 602.562 531.035 599.706 523.808L597.846 524.544L595.986 525.279C599.122 533.213 605.893 543.121 617.896 555.139L619.312 553.725ZM597.846 524.544L599.706 523.808C596.847 516.578 597.563 511.801 599.495 509.012L597.852 507.873L596.208 506.734C593.231 511.03 592.852 517.353 595.986 525.279L597.846 524.544Z" fill="white"/>
<path d="M644.066 508.207C641.657 504.779 637.283 503.526 633.022 504.156C628.754 504.788 624.493 507.319 622.232 511.605L623.117 512.071C625.209 508.107 629.169 505.738 633.169 505.146C637.176 504.553 641.118 505.753 643.248 508.782C645.372 511.804 645.819 516.825 642.439 524.143C639.062 531.455 631.901 540.968 619 552.84L619.339 553.207L619.678 553.575C632.624 541.661 639.892 532.045 643.348 524.563C646.8 517.086 646.482 511.644 644.066 508.207Z" fill="#D9D9D9"/>
<path d="M644.066 508.207L645.703 507.057L645.703 507.057L644.066 508.207ZM633.022 504.156L632.73 502.178L632.73 502.178L633.022 504.156ZM622.232 511.605L621.299 513.374L619.53 512.44L620.464 510.671L622.232 511.605ZM623.117 512.071L624.886 513.005L623.953 514.774L622.184 513.84L623.117 512.071ZM633.169 505.146L632.876 503.167L632.876 503.167L633.169 505.146ZM643.248 508.782L644.884 507.632L644.884 507.632L643.248 508.782ZM642.439 524.143L644.255 524.981L644.255 524.981L642.439 524.143ZM619 552.84L617.53 554.196L616.172 552.725L617.646 551.368L619 552.84ZM619.339 553.207L620.809 551.851L620.81 551.853L619.339 553.207ZM619.678 553.575L621.032 555.047L619.561 556.401L618.206 554.93L619.678 553.575ZM643.348 524.563L645.163 525.401L645.163 525.401L643.348 524.563ZM644.066 508.207L642.43 509.357C640.581 506.727 637.071 505.579 633.315 506.135L633.022 504.156L632.73 502.178C637.494 501.473 642.732 502.832 645.703 507.057L644.066 508.207ZM633.022 504.156L633.315 506.135C629.584 506.687 625.923 508.895 624.001 512.538L622.232 511.605L620.464 510.671C623.063 505.744 627.924 502.889 632.73 502.178L633.022 504.156ZM622.232 511.605L623.166 509.836L624.05 510.303L623.117 512.071L622.184 513.84L621.299 513.374L622.232 511.605ZM623.117 512.071L621.348 511.138C623.779 506.532 628.339 503.839 632.876 503.167L633.169 505.146L633.462 507.124C630 507.637 626.639 509.682 624.886 513.005L623.117 512.071ZM633.169 505.146L632.876 503.167C637.391 502.499 642.195 503.807 644.884 507.632L643.248 508.782L641.612 509.933C640.041 507.698 636.962 506.606 633.462 507.124L633.169 505.146ZM643.248 508.782L644.884 507.632C647.591 511.483 647.782 517.345 644.255 524.981L642.439 524.143L640.624 523.304C643.856 516.305 643.153 512.125 641.612 509.933L643.248 508.782ZM642.439 524.143L644.255 524.981C640.722 532.633 633.348 542.354 620.354 554.312L619 552.84L617.646 551.368C630.454 539.581 637.403 530.278 640.624 523.304L642.439 524.143ZM619 552.84L620.47 551.484L620.809 551.851L619.339 553.207L617.869 554.564L617.53 554.196L619 552.84ZM619.339 553.207L620.81 551.853L621.149 552.221L619.678 553.575L618.206 554.93L617.867 554.562L619.339 553.207ZM619.678 553.575L618.323 552.104C631.178 540.274 638.233 530.867 641.532 523.724L643.348 524.563L645.163 525.401C641.552 533.222 634.071 543.047 621.032 555.047L619.678 553.575ZM643.348 524.563L641.532 523.724C644.838 516.564 644.262 511.964 642.43 509.357L644.066 508.207L645.703 507.057C648.702 511.324 648.762 517.608 645.163 525.401L643.348 524.563Z" fill="white"/>
<circle cx="739.335" cy="535.335" r="10.3354" stroke="black" stroke-width="2"/>
<line x1="739.305" y1="524" x2="739.305" y2="534.992" stroke="black" stroke-width="2"/>
<line x1="749.297" y1="535.992" x2="738.305" y2="535.992" stroke="black" stroke-width="2"/>
<circle cx="931.23" cy="674.5" r="63.5" fill="white" stroke="black" stroke-width="4"/>
<circle cx="536.23" cy="674.5" r="63.5" fill="white" stroke="black" stroke-width="4"/>
<circle cx="733.73" cy="674" r="87" fill="#A1ADCB" stroke="black" stroke-width="4"/>
</svg>
