<svg width="561" height="188" viewBox="0 0 561 188" fill="none" xmlns="http://www.w3.org/2000/svg">
<mask id="path-1-inside-1_450_25" fill="white">
<path d="M34 187.094L34 0.09375L528 0.0937284L528 187.094L34 187.094Z"/>
</mask>
<path d="M34 187.094L34 0.09375L528 0.0937284L528 187.094L34 187.094Z" fill="#A1ADCB"/>
<path d="M34 0.09375L34 4.09375L528 4.09373L528 0.0937284L528 -3.90627L34 -3.90625L34 0.09375ZM528 187.094L528 183.094L34 183.094L34 187.094L34 191.094L528 191.094L528 187.094Z" fill="black" mask="url(#path-1-inside-1_450_25)"/>
<path d="M561.002 10.6139L542.877 16.3334L561.002 22.0528L541.264 28.2806L561.002 34.7174L543.462 40.4369L561.002 46.1563L541.264 52.5923L561.002 58.8209L542.877 64.5404L561.002 70.2598L541.582 76.3878L561.002 82.5159L542.877 88.2353L561.002 93.9548L544.171 99.2657L561.002 104.577L541.582 110.705L561.002 116.833L542.877 122.552L561.002 128.272L541.264 134.499L561.002 140.936L543.462 146.656L561.002 152.375L541.264 158.811L561.002 165.04L542.877 170.759L561.002 176.479L527.367 187.093L527.367 0L561.002 10.6139ZM530.408 182.726L550.208 176.479L532.082 170.759L550.208 165.039L530.633 158.862L550.527 152.374L532.989 146.656L550.528 140.935L530.633 134.448L550.207 128.271L532.082 122.552L550.208 116.832L530.788 110.705L550.208 104.577L533.377 99.2657L550.208 93.954L532.082 88.2353L550.208 82.5151L530.788 76.3878L550.208 70.2598L532.082 64.5404L550.208 58.8201L530.633 52.6434L550.527 46.1555L532.989 40.4369L550.528 34.7166L530.633 28.2287L550.207 22.052L532.082 16.3334L550.208 10.6131L530.408 4.36541L530.408 182.726Z" fill="black"/>
<path d="M4.63719e-07 10.7024L18.3221 16.419L9.63484e-07 22.1357L19.9519 28.3604L1.5168e-06 34.794L17.7301 40.5106L2.01656e-06 46.2273L19.9519 52.6601L2.56987e-06 58.8855L18.3221 64.6022L3.06964e-06 70.3188L19.6307 76.4438L3.6051e-06 82.5688L18.3221 88.2854L4.10486e-06 94.0021L17.0135 99.3104L4.56893e-06 104.619L19.6307 110.744L5.10439e-06 116.869L18.3221 122.585L5.60416e-06 128.302L19.9519 134.527L6.15747e-06 140.96L17.7301 146.677L6.65723e-06 152.394L19.9519 158.826L7.21055e-06 165.052L18.3221 170.768L7.71031e-06 176.485L34 187.094L34 0.09375L4.63719e-07 10.7024ZM30.9266 182.73L10.9116 176.485L29.2338 170.768L10.9116 165.051L30.6985 158.877L10.589 152.393L28.3176 146.677L10.5882 140.959L30.6985 134.475L10.9124 128.301L29.2338 122.585L10.9116 116.868L30.5424 110.744L10.9116 104.619L27.9251 99.3104L10.9116 94.0013L29.2338 88.2854L10.9116 82.568L30.5424 76.4438L10.9116 70.3188L29.2338 64.6022L10.9116 58.8848L30.6984 52.7111L10.589 46.2265L28.3176 40.5106L10.5882 34.7932L30.6984 28.3085L10.9124 22.1349L29.2338 16.419L10.9116 10.7016L30.9266 4.457L30.9266 182.73Z" fill="black"/>
<path d="M436.332 44.3594C436.332 59.5472 423.796 71.8594 408.332 71.8594C392.868 71.8594 380.332 59.5472 380.332 44.3594C380.332 29.1715 392.868 16.8594 408.332 16.8594C423.796 16.8594 436.332 29.1715 436.332 44.3594Z" fill="white"/>
<path d="M460.332 107.359C460.332 122.547 448.02 134.859 432.832 134.859C417.644 134.859 405.332 122.547 405.332 107.359C405.332 92.1715 417.644 79.8594 432.832 79.8594C448.02 79.8594 460.332 92.1715 460.332 107.359Z" fill="white"/>
<path d="M518.332 141.859C518.332 157.323 506.02 169.859 490.832 169.859C475.644 169.859 463.332 157.323 463.332 141.859C463.332 126.395 475.644 113.859 490.832 113.859C506.02 113.859 518.332 126.395 518.332 141.859Z" fill="white"/>
<path d="M504.332 55.8594C504.332 71.3233 492.02 83.8594 476.832 83.8594C461.644 83.8594 449.332 71.3233 449.332 55.8594C449.332 40.3954 461.644 27.8594 476.832 27.8594C492.02 27.8594 504.332 40.3954 504.332 55.8594Z" fill="white"/>
<path d="M380.332 82.3594C380.332 97.5472 367.796 109.859 352.332 109.859C336.868 109.859 324.332 97.5472 324.332 82.3594C324.332 67.1715 336.868 54.8594 352.332 54.8594C367.796 54.8594 380.332 67.1715 380.332 82.3594Z" fill="white"/>
<path d="M326.332 42.3594C326.332 57.5472 313.796 69.8594 298.332 69.8594C282.868 69.8594 270.332 57.5472 270.332 42.3594C270.332 27.1715 282.868 14.8594 298.332 14.8594C313.796 14.8594 326.332 27.1715 326.332 42.3594Z" fill="white"/>
<path d="M270.332 79.8594C270.332 95.3233 258.02 107.859 242.832 107.859C227.644 107.859 215.332 95.3233 215.332 79.8594C215.332 64.3954 227.644 51.8594 242.832 51.8594C258.02 51.8594 270.332 64.3954 270.332 79.8594Z" fill="white"/>
</svg>
