<svg width="1276" height="902" viewBox="0 0 1276 902" fill="none" xmlns="http://www.w3.org/2000/svg">
<rect x="1024.91" width="52" height="22" fill="#A1ADCB"/>
<path d="M1050.77 299.765L1060.66 301.282L1062.63 301.586L1062.33 303.562C1061.47 309.142 1061.25 316.471 1061.29 325.402C1061.33 334.6 1061.62 343.993 1061.71 355.238C1061.8 365.746 1061.69 377.009 1060.93 388.539C1129.46 400.046 1191.21 433.659 1230.2 479.22C1261.81 516.156 1278.71 561.316 1271.43 608.987C1264.16 656.623 1232.94 705.429 1171.01 750.174C1072.59 821.291 997.041 834.798 939.502 819.322C883.095 804.15 845.989 761.631 822.529 723.439L821.423 721.624L821.299 721.419L821.25 721.339L821.21 721.255L821.105 721.039L821.104 721.035C812.624 703.411 788.419 655.247 792.264 609.266C794.222 585.844 803.459 562.746 825.583 544.677C847.507 526.772 881.375 514.389 931.492 510.632C969.004 507.82 993.993 496.459 1010.83 480.9C1027.71 465.295 1037.06 444.841 1042.13 422.647C1043.79 415.366 1044.98 407.936 1045.83 400.479C1009.36 395.952 971.187 398.01 933.882 408.331C837.334 435.043 800.59 475.345 731.551 517.135C671.284 553.615 588.698 589.367 424.657 614.537C435.461 630.348 444.045 647.49 449.727 665.67C462.72 707.248 457.772 740.639 441.545 765.236C425.439 789.65 398.918 804.34 370.699 810.115C342.491 815.888 311.883 812.918 286.807 801.227C261.619 789.483 241.658 768.71 236.162 739.031C227.633 692.972 245.592 661.447 271.502 641.328C294.698 623.317 324.093 614.496 346.182 611.499L346.114 610.914L348.101 610.683C365.871 608.61 382.827 606.43 399.019 604.154C361.96 561.059 306.765 530.971 253.314 523.201C214.682 517.586 177.815 523.768 149.741 544.265C121.815 564.654 101.502 600.004 97.3887 655.021C92.6469 718.445 138.417 758.49 159.931 786.107C162.576 789.504 164.944 792.855 166.712 796.1C168.453 799.295 169.868 802.847 170.1 806.571C170.348 810.568 169.2 814.406 166.449 817.673C163.879 820.726 160.245 822.886 156.133 824.519C147.99 827.752 135.664 829.798 118.569 831.098C111.275 831.652 102.996 832.073 93.6445 832.379C96.0425 852.492 97.3946 865.058 97.3945 895V897H83.4219V895C83.422 864.795 81.9992 852.539 79.5889 832.736C70.2829 832.912 60.0771 833.001 48.9072 833.001C33.9763 833.001 22.4987 829.035 14.5166 821.848C6.52913 814.655 2.8673 804.978 2.13965 795.183C0.722148 776.1 10.2679 754.619 24.2363 743.781C31.4127 738.213 40.4678 734.96 50.082 737.405C59.5769 739.82 67.8716 747.36 74.6211 759.536C81.7733 772.439 87.7608 791.538 91.8027 818.43C101.565 818.126 110.093 817.7 117.508 817.137C134.441 815.85 144.936 813.901 150.965 811.507C153.939 810.326 155.229 809.262 155.74 808.655C156.072 808.261 156.162 808.001 156.127 807.438C156.075 806.599 155.686 805.123 154.418 802.796C153.177 800.519 151.335 797.854 148.887 794.711C129.642 770.007 78.1698 724.309 83.4277 653.979C87.773 595.859 109.52 556.295 141.486 532.956C173.306 509.725 214.167 503.364 255.328 509.348C314.389 517.933 375.832 552.221 415.254 601.802C582.806 576.785 665.084 541.002 724.3 505.158C790.725 464.95 831.127 422.234 930.148 394.838C969.105 384.06 1008.95 381.86 1047.04 386.523C1047.69 375.897 1047.8 365.389 1047.71 355.354C1047.63 345.02 1047.33 334.193 1047.29 325.466C1047.25 316.477 1047.45 308.194 1048.49 301.438L1048.8 299.461L1050.77 299.765ZM46.6309 750.973C42.3798 749.892 37.6789 751.073 32.8184 754.844C27.8091 758.73 23.3378 764.88 20.2588 771.968C17.1831 779.048 15.5633 786.912 16.1006 794.146C16.6235 801.184 19.145 807.176 23.8848 811.444C28.6296 815.716 36.4205 819.001 48.9072 819.001C59.3667 819.001 68.9413 818.923 77.6914 818.77C73.8342 793.962 68.3682 777.131 62.377 766.323C56.6688 756.026 50.999 752.084 46.6309 750.973ZM1059.68 402.528C1058.79 410.28 1057.54 418.073 1055.78 425.765C1050.31 449.729 1039.92 473.075 1020.33 491.182C1000.69 509.336 972.473 521.599 932.538 524.593C884.02 528.23 853.328 540.092 834.438 555.52C815.747 570.784 807.914 590.108 806.215 610.433C804.492 631.044 809.087 652.484 815.273 671.147C821.434 689.732 829.123 705.421 833.567 714.651C856.179 751.922 891.047 791.792 943.139 805.803C995.123 819.785 1066.33 808.542 1162.81 738.826C1222.7 695.551 1251.05 649.729 1257.59 606.874C1264.13 564.055 1249.12 522.86 1219.56 488.322C1183.04 445.641 1124.73 413.693 1059.68 402.528ZM409.124 616.853C392.148 619.312 374.333 621.662 355.62 623.892L355.681 624.544L353.688 624.728C332.892 626.647 302.804 634.747 280.088 652.386C268.915 661.061 259.533 672.017 253.861 685.787C248.194 699.546 246.18 716.239 249.929 736.483C254.433 760.806 270.725 778.281 292.723 788.537C314.833 798.846 342.351 801.626 367.892 796.399C393.422 791.175 416.277 778.114 429.858 757.527C443.319 737.124 448.37 708.265 436.363 669.845C430.448 650.916 421.065 633.111 409.124 616.853Z" fill="#A1ADCB"/>
<path d="M1050.77 299.765L1050.47 301.741L1050.47 301.741L1050.77 299.765ZM1060.66 301.282L1060.96 299.305L1060.96 299.305L1060.66 301.282ZM1062.63 301.586L1064.61 301.89L1064.91 299.913L1062.94 299.609L1062.63 301.586ZM1062.33 303.562L1060.35 303.259L1060.35 303.259L1062.33 303.562ZM1061.29 325.402L1063.29 325.393L1063.29 325.393L1061.29 325.402ZM1061.71 355.238L1063.71 355.222L1063.71 355.222L1061.71 355.238ZM1060.93 388.539L1058.94 388.408L1058.82 390.212L1060.6 390.511L1060.93 388.539ZM1230.2 479.22L1231.72 477.919L1231.72 477.919L1230.2 479.22ZM1271.43 608.987L1273.41 609.289L1273.41 609.289L1271.43 608.987ZM1171.01 750.174L1172.18 751.795L1172.18 751.795L1171.01 750.174ZM939.502 819.322L938.982 821.254L938.982 821.254L939.502 819.322ZM822.529 723.439L820.821 724.48L820.825 724.486L822.529 723.439ZM821.423 721.624L819.711 722.659L819.715 722.665L821.423 721.624ZM821.299 721.419L823.01 720.384L823.006 720.378L821.299 721.419ZM821.25 721.339L819.445 722.2L819.489 722.292L819.542 722.38L821.25 721.339ZM821.21 721.255L823.015 720.394L823.01 720.383L821.21 721.255ZM821.105 721.039L822.906 720.168L822.9 720.156L822.894 720.145L821.105 721.039ZM821.104 721.035L819.301 721.902L819.308 721.916L819.315 721.93L821.104 721.035ZM792.264 609.266L790.271 609.099L790.271 609.099L792.264 609.266ZM825.583 544.677L824.318 543.128L824.318 543.128L825.583 544.677ZM931.492 510.632L931.642 512.626L931.642 512.626L931.492 510.632ZM1010.83 480.9L1009.47 479.432L1009.47 479.432L1010.83 480.9ZM1042.13 422.647L1040.18 422.202L1040.18 422.202L1042.13 422.647ZM1045.83 400.479L1047.82 400.705L1048.04 398.738L1046.07 398.495L1045.83 400.479ZM933.882 408.331L933.349 406.403L933.349 406.403L933.882 408.331ZM731.551 517.135L732.586 518.846L732.586 518.846L731.551 517.135ZM424.657 614.537L424.354 612.56L421.213 613.042L423.006 615.665L424.657 614.537ZM449.727 665.67L451.636 665.073L451.636 665.073L449.727 665.67ZM441.545 765.236L443.214 766.338L443.214 766.338L441.545 765.236ZM370.699 810.115L371.1 812.075L371.1 812.075L370.699 810.115ZM286.807 801.227L285.962 803.039L285.962 803.039L286.807 801.227ZM236.162 739.031L234.196 739.395L234.196 739.395L236.162 739.031ZM271.502 641.328L270.275 639.748L270.275 639.748L271.502 641.328ZM346.182 611.499L346.45 613.481L348.393 613.217L348.169 611.27L346.182 611.499ZM346.114 610.914L345.883 608.928L343.899 609.159L344.127 611.143L346.114 610.914ZM348.101 610.683L348.332 612.669L348.332 612.669L348.101 610.683ZM399.019 604.154L399.297 606.135L402.921 605.625L400.535 602.85L399.019 604.154ZM253.314 523.201L253.602 521.222L253.602 521.222L253.314 523.201ZM149.741 544.265L148.562 542.649L148.562 542.649L149.741 544.265ZM97.3887 655.021L95.3942 654.872L95.3942 654.872L97.3887 655.021ZM159.931 786.107L161.508 784.878L161.508 784.878L159.931 786.107ZM166.712 796.1L168.468 795.143L168.468 795.143L166.712 796.1ZM170.1 806.571L172.096 806.447L172.096 806.447L170.1 806.571ZM166.449 817.673L167.979 818.961L167.979 818.961L166.449 817.673ZM156.133 824.519L156.871 826.377L156.871 826.377L156.133 824.519ZM118.569 831.098L118.721 833.092L118.721 833.092L118.569 831.098ZM93.6445 832.379L93.5791 830.38L91.4006 830.451L91.6586 832.616L93.6445 832.379ZM97.3945 895L95.3945 895V895H97.3945ZM97.3945 897V899H99.3945V897H97.3945ZM83.4219 897H81.4219V899H83.4219V897ZM83.4219 895L81.4219 895V895H83.4219ZM79.5889 832.736L81.5742 832.495L81.3561 830.703L79.5511 830.737L79.5889 832.736ZM48.9072 833.001L48.9072 835.001H48.9072V833.001ZM14.5166 821.848L13.1783 823.334L13.1783 823.334L14.5166 821.848ZM2.13965 795.183L0.145143 795.331L0.145144 795.331L2.13965 795.183ZM24.2363 743.781L23.0103 742.201L23.0103 742.201L24.2363 743.781ZM50.082 737.405L50.575 735.467L50.575 735.467L50.082 737.405ZM74.6211 759.536L76.3703 758.566L76.3703 758.566L74.6211 759.536ZM91.8027 818.43L89.825 818.727L90.089 820.484L91.8649 820.429L91.8027 818.43ZM117.508 817.137L117.659 819.131L117.659 819.131L117.508 817.137ZM150.965 811.507L151.703 813.366L151.703 813.366L150.965 811.507ZM155.74 808.655L157.27 809.943L157.27 809.943L155.74 808.655ZM156.127 807.438L158.123 807.314L158.123 807.313L156.127 807.438ZM154.418 802.796L156.174 801.839L156.174 801.839L154.418 802.796ZM148.887 794.711L150.465 793.482L150.464 793.482L148.887 794.711ZM83.4277 653.979L81.4333 653.829L81.4333 653.829L83.4277 653.979ZM141.486 532.956L140.307 531.341L140.307 531.341L141.486 532.956ZM255.328 509.348L255.616 507.368L255.616 507.368L255.328 509.348ZM415.254 601.802L413.688 603.046L414.407 603.95L415.549 603.78L415.254 601.802ZM724.3 505.158L725.335 506.869L725.335 506.869L724.3 505.158ZM930.148 394.838L929.615 392.91L929.615 392.91L930.148 394.838ZM1047.04 386.523L1046.79 388.509L1048.9 388.767L1049.03 386.647L1047.04 386.523ZM1047.71 355.354L1049.71 355.337L1049.71 355.337L1047.71 355.354ZM1047.29 325.466L1045.29 325.475L1045.29 325.475L1047.29 325.466ZM1048.49 301.438L1046.52 301.134L1046.52 301.134L1048.49 301.438ZM1048.8 299.461L1049.1 297.484L1047.12 297.18L1046.82 299.157L1048.8 299.461ZM46.6309 750.973L47.1239 749.034L47.1238 749.034L46.6309 750.973ZM32.8184 754.844L31.5923 753.264L31.5923 753.264L32.8184 754.844ZM20.2588 771.968L18.4244 771.171L18.4244 771.171L20.2588 771.968ZM16.1006 794.146L14.1061 794.294L14.1061 794.294L16.1006 794.146ZM23.8848 811.444L22.5465 812.931L22.5465 812.931L23.8848 811.444ZM48.9072 819.001L48.9072 821.001H48.9072V819.001ZM77.6914 818.77L77.7265 820.769L80.0201 820.729L79.6677 818.462L77.6914 818.77ZM62.377 766.323L64.1262 765.354L64.1262 765.354L62.377 766.323ZM1059.68 402.528L1060.02 400.557L1057.94 400.2L1057.7 402.299L1059.68 402.528ZM1055.78 425.765L1057.73 426.21L1057.73 426.21L1055.78 425.765ZM1020.33 491.182L1021.69 492.65L1021.69 492.65L1020.33 491.182ZM932.538 524.593L932.389 522.598L932.389 522.598L932.538 524.593ZM834.438 555.52L833.172 553.97L833.172 553.97L834.438 555.52ZM806.215 610.433L804.222 610.266L804.222 610.266L806.215 610.433ZM815.273 671.147L813.375 671.777L813.375 671.777L815.273 671.147ZM833.567 714.651L831.765 715.519L831.807 715.606L831.857 715.689L833.567 714.651ZM943.139 805.803L942.619 807.734L942.619 807.734L943.139 805.803ZM1162.81 738.826L1163.98 740.447L1163.98 740.447L1162.81 738.826ZM1257.59 606.874L1259.57 607.176L1259.57 607.176L1257.59 606.874ZM1219.56 488.322L1221.08 487.022L1221.08 487.022L1219.56 488.322ZM409.124 616.853L410.736 615.669L410.025 614.701L408.837 614.873L409.124 616.853ZM355.62 623.892L355.383 621.906L353.449 622.136L353.629 624.076L355.62 623.892ZM355.681 624.544L355.864 626.536L357.857 626.352L357.672 624.359L355.681 624.544ZM353.688 624.728L353.505 622.736L353.505 622.736L353.688 624.728ZM280.088 652.386L278.861 650.806L278.861 650.806L280.088 652.386ZM253.861 685.787L252.012 685.025L252.012 685.025L253.861 685.787ZM249.929 736.483L247.962 736.848L247.962 736.848L249.929 736.483ZM292.723 788.537L291.878 790.35L291.878 790.35L292.723 788.537ZM367.892 796.399L368.293 798.359L368.293 798.359L367.892 796.399ZM429.858 757.527L431.528 758.629L431.528 758.629L429.858 757.527ZM436.363 669.845L438.272 669.248L438.272 669.248L436.363 669.845ZM1050.77 299.765L1050.47 301.741L1060.35 303.259L1060.66 301.282L1060.96 299.305L1051.08 297.788L1050.77 299.765ZM1060.66 301.282L1060.35 303.259L1062.33 303.563L1062.63 301.586L1062.94 299.609L1060.96 299.305L1060.66 301.282ZM1062.63 301.586L1060.66 301.282L1060.35 303.259L1062.33 303.562L1064.31 303.866L1064.61 301.89L1062.63 301.586ZM1062.33 303.562L1060.35 303.259C1059.47 309.007 1059.25 316.472 1059.29 325.411L1061.29 325.402L1063.29 325.393C1063.25 316.469 1063.48 309.278 1064.31 303.866L1062.33 303.562ZM1061.29 325.402L1059.29 325.411C1059.33 334.539 1059.62 344.144 1059.71 355.255L1061.71 355.238L1063.71 355.222C1063.62 343.842 1063.33 334.661 1063.29 325.393L1061.29 325.402ZM1061.71 355.238L1059.71 355.255C1059.8 365.739 1059.69 376.947 1058.94 388.408L1060.93 388.539L1062.93 388.67C1063.69 377.071 1063.8 365.754 1063.71 355.222L1061.71 355.238ZM1060.93 388.539L1060.6 390.511C1128.72 401.951 1190.04 435.36 1228.68 480.52L1230.2 479.22L1231.72 477.919C1192.39 431.958 1130.19 398.142 1061.26 386.567L1060.93 388.539ZM1230.2 479.22L1228.68 480.52C1259.99 517.114 1276.63 561.708 1269.46 608.685L1271.43 608.987L1273.41 609.289C1280.8 560.925 1263.62 515.199 1231.72 477.919L1230.2 479.22ZM1271.43 608.987L1269.46 608.685C1262.29 655.638 1231.47 704.017 1169.84 748.553L1171.01 750.174L1172.18 751.795C1234.4 706.84 1266.03 657.608 1273.41 609.289L1271.43 608.987ZM1171.01 750.174L1169.84 748.553C1071.69 819.47 996.766 832.654 940.021 817.391L939.502 819.322L938.982 821.254C997.315 836.943 1073.48 823.112 1172.18 751.795L1171.01 750.174ZM939.502 819.322L940.021 817.391C884.33 802.412 847.577 760.395 824.233 722.393L822.529 723.439L820.825 724.486C844.401 762.867 881.86 805.889 938.982 821.254L939.502 819.322ZM822.529 723.439L824.237 722.399L823.131 720.583L821.423 721.624L819.715 722.665L820.821 724.48L822.529 723.439ZM821.423 721.624L823.134 720.589L823.01 720.384L821.299 721.419L819.587 722.454L819.711 722.659L821.423 721.624ZM821.299 721.419L823.006 720.378L822.958 720.298L821.25 721.339L819.542 722.38L819.591 722.46L821.299 721.419ZM821.25 721.339L823.055 720.478L823.015 720.394L821.21 721.255L819.405 722.116L819.445 722.2L821.25 721.339ZM821.21 721.255L823.01 720.383L822.906 720.168L821.105 721.039L819.305 721.911L819.41 722.126L821.21 721.255ZM821.105 721.039L822.894 720.145L822.892 720.141L821.104 721.035L819.315 721.93L819.317 721.933L821.105 721.039ZM821.104 721.035L822.906 720.168C814.374 702.436 790.466 654.776 794.257 609.432L792.264 609.266L790.271 609.099C786.373 655.718 810.873 704.385 819.301 721.902L821.104 721.035ZM792.264 609.266L794.257 609.432C796.178 586.453 805.215 563.894 826.848 546.226L825.583 544.677L824.318 543.128C801.703 561.597 792.266 585.236 790.271 609.099L792.264 609.266ZM825.583 544.677L826.848 546.226C848.339 528.675 881.753 516.366 931.642 512.626L931.492 510.632L931.343 508.637C880.997 512.412 846.675 524.869 824.318 543.128L825.583 544.677ZM931.492 510.632L931.642 512.626C969.5 509.788 994.949 498.298 1012.18 482.369L1010.83 480.9L1009.47 479.432C993.036 494.619 968.509 505.851 931.343 508.637L931.492 510.632ZM1010.83 480.9L1012.18 482.369C1029.45 466.406 1038.96 445.539 1044.08 423.093L1042.13 422.647L1040.18 422.202C1035.17 444.143 1025.97 464.183 1009.47 479.432L1010.83 480.9ZM1042.13 422.647L1044.08 423.093C1045.76 415.726 1046.96 408.221 1047.82 400.705L1045.83 400.479L1043.84 400.254C1043 407.651 1041.83 415.006 1040.18 422.202L1042.13 422.647ZM1045.83 400.479L1046.07 398.495C1009.36 393.938 970.926 396.007 933.349 406.403L933.882 408.331L934.415 410.259C971.448 400.013 1009.35 397.967 1045.58 402.464L1045.83 400.479ZM933.882 408.331L933.349 406.403C836.448 433.213 799.177 473.862 730.515 515.424L731.551 517.135L732.586 518.846C802.002 476.827 838.221 436.873 934.415 410.259L933.882 408.331ZM731.551 517.135L730.515 515.424C670.514 551.743 588.189 587.422 424.354 612.56L424.657 614.537L424.961 616.514C589.207 591.312 672.053 555.487 732.586 518.846L731.551 517.135ZM424.657 614.537L423.006 615.665C433.708 631.329 442.201 648.292 447.818 666.266L449.727 665.67L451.636 665.073C445.89 646.687 437.213 629.368 426.309 613.409L424.657 614.537ZM449.727 665.67L447.818 666.266C460.67 707.394 455.707 740.138 439.875 764.135L441.545 765.236L443.214 766.338C459.837 741.141 464.769 707.102 451.636 665.073L449.727 665.67ZM441.545 765.236L439.875 764.135C424.13 788.001 398.133 802.459 370.298 808.156L370.699 810.115L371.1 812.075C399.702 806.221 426.748 791.298 443.214 766.338L441.545 765.236ZM370.699 810.115L370.298 808.156C342.471 813.851 312.305 810.907 287.652 799.414L286.807 801.227L285.962 803.039C311.462 814.928 342.511 817.925 371.1 812.075L370.699 810.115ZM286.807 801.227L287.652 799.414C262.919 787.883 243.483 767.579 238.129 738.667L236.162 739.031L234.196 739.395C239.833 769.84 260.319 791.084 285.962 803.039L286.807 801.227ZM236.162 739.031L238.129 738.667C229.751 693.425 247.34 662.621 272.729 642.908L271.502 641.328L270.275 639.748C243.844 660.272 225.515 692.518 234.196 739.395L236.162 739.031ZM271.502 641.328L272.729 642.908C295.562 625.178 324.588 616.447 346.45 613.481L346.182 611.499L345.913 609.517C323.599 612.544 293.834 621.456 270.275 639.748L271.502 641.328ZM346.182 611.499L348.169 611.27L348.101 610.685L346.114 610.914L344.127 611.143L344.195 611.728L346.182 611.499ZM346.114 610.914L346.346 612.901L348.332 612.669L348.101 610.683L347.869 608.696L345.883 608.928L346.114 610.914ZM348.101 610.683L348.332 612.669C366.118 610.595 383.089 608.413 399.297 606.135L399.019 604.154L398.74 602.174C382.565 604.447 365.625 606.625 347.869 608.696L348.101 610.683ZM399.019 604.154L400.535 602.85C363.166 559.395 307.537 529.062 253.602 521.222L253.314 523.201L253.027 525.18C305.992 532.88 360.753 562.724 397.502 605.458L399.019 604.154ZM253.314 523.201L253.602 521.222C214.608 515.554 177.17 521.762 148.562 542.649L149.741 544.265L150.921 545.88C178.459 525.774 214.756 519.617 253.027 525.18L253.314 523.201ZM149.741 544.265L148.562 542.649C120.059 563.46 99.5408 599.411 95.3942 654.872L97.3887 655.021L99.3831 655.171C103.463 600.596 123.571 565.848 150.921 545.88L149.741 544.265ZM97.3887 655.021L95.3942 654.872C90.5786 719.285 137.169 760.143 158.353 787.336L159.931 786.107L161.508 784.878C139.664 756.837 94.7152 717.606 99.3831 655.171L97.3887 655.021ZM159.931 786.107L158.353 787.336C160.97 790.696 163.263 793.95 164.956 797.056L166.712 796.1L168.468 795.143C166.626 791.76 164.182 788.311 161.508 784.878L159.931 786.107ZM166.712 796.1L164.956 797.056C166.628 800.127 167.898 803.383 168.103 806.695L170.1 806.571L172.096 806.447C171.839 802.311 170.277 798.463 168.468 795.143L166.712 796.1ZM170.1 806.571L168.103 806.695C168.321 810.202 167.324 813.529 164.919 816.385L166.449 817.673L167.979 818.961C171.076 815.283 172.374 810.933 172.096 806.447L170.1 806.571ZM166.449 817.673L164.919 816.385C162.643 819.088 159.344 821.091 155.395 822.66L156.133 824.519L156.871 826.377C161.145 824.68 165.114 822.364 167.979 818.961L166.449 817.673ZM156.133 824.519L155.395 822.66C147.553 825.774 135.489 827.806 118.418 829.103L118.569 831.098L118.721 833.092C135.84 831.791 148.426 829.731 156.871 826.377L156.133 824.519ZM118.569 831.098L118.418 829.103C111.16 829.655 102.91 830.074 93.5791 830.38L93.6445 832.379L93.71 834.378C103.081 834.071 111.39 833.649 118.721 833.092L118.569 831.098ZM93.6445 832.379L91.6586 832.616C94.0501 852.674 95.3946 865.158 95.3945 895L97.3945 895L99.3945 895C99.3946 864.958 98.035 852.31 95.6305 832.142L93.6445 832.379ZM97.3945 895H95.3945V897H97.3945H99.3945V895H97.3945ZM97.3945 897V895H83.4219V897V899H97.3945V897ZM83.4219 897H85.4219V895H83.4219H81.4219V897H83.4219ZM83.4219 895L85.4219 895C85.422 864.691 83.9908 852.349 81.5742 832.495L79.5889 832.736L77.6035 832.978C80.0075 852.728 81.422 864.9 81.4219 895L83.4219 895ZM79.5889 832.736L79.5511 830.737C70.2597 830.912 60.0667 831.001 48.9072 831.001V833.001V835.001C60.0875 835.001 70.306 834.912 79.6266 834.736L79.5889 832.736ZM48.9072 833.001L48.9072 831.001C34.3246 831.001 23.374 827.132 15.8549 820.361L14.5166 821.848L13.1783 823.334C21.6234 830.938 33.628 835.001 48.9072 835.001L48.9072 833.001ZM14.5166 821.848L15.8549 820.361C8.33216 813.588 4.83264 804.437 4.13415 795.034L2.13965 795.183L0.145144 795.331C0.901955 805.519 4.72611 815.723 13.1783 823.334L14.5166 821.848ZM2.13965 795.183L4.13415 795.034C2.76432 776.593 12.0444 755.772 25.4624 745.361L24.2363 743.781L23.0103 742.201C8.49146 753.466 -1.32003 775.606 0.145143 795.331L2.13965 795.183ZM24.2363 743.781L25.4623 745.361C32.3108 740.048 40.7438 737.094 49.5891 739.344L50.082 737.405L50.575 735.467C40.1918 732.826 30.5145 736.379 23.0103 742.201L24.2363 743.781ZM50.082 737.405L49.589 739.344C58.35 741.572 66.2701 748.596 72.8719 760.506L74.6211 759.536L76.3703 758.566C69.4732 746.124 60.8038 738.069 50.575 735.467L50.082 737.405ZM74.6211 759.536L72.8719 760.506C79.8628 773.117 85.8011 791.956 89.825 818.727L91.8027 818.43L93.7805 818.132C89.7205 791.12 83.6838 771.76 76.3703 758.566L74.6211 759.536ZM91.8027 818.43L91.8649 820.429C101.647 820.124 110.207 819.697 117.659 819.131L117.508 817.137L117.356 815.142C109.98 815.703 101.482 816.128 91.7405 816.431L91.8027 818.43ZM117.508 817.137L117.659 819.131C134.615 817.842 145.372 815.88 151.703 813.366L150.965 811.507L150.227 809.648C144.5 811.922 134.267 813.857 117.356 815.142L117.508 817.137ZM150.965 811.507L151.703 813.366C154.84 812.12 156.465 810.9 157.27 809.943L155.74 808.655L154.21 807.367C153.994 807.624 153.038 808.532 150.227 809.648L150.965 811.507ZM155.74 808.655L157.27 809.943C157.514 809.654 157.802 809.259 157.975 808.723C158.145 808.196 158.147 807.705 158.123 807.314L156.127 807.438L154.131 807.561C154.141 807.734 154.117 807.654 154.168 807.496C154.193 807.418 154.224 807.36 154.242 807.33C154.257 807.306 154.255 807.314 154.21 807.367L155.74 808.655ZM156.127 807.438L158.123 807.313C158.045 806.063 157.509 804.29 156.174 801.839L154.418 802.796L152.662 803.753C153.862 805.956 154.104 807.136 154.131 807.562L156.127 807.438ZM154.418 802.796L156.174 801.839C154.858 799.424 152.941 796.661 150.465 793.482L148.887 794.711L147.309 795.94C149.729 799.047 151.496 801.614 152.662 803.753L154.418 802.796ZM148.887 794.711L150.464 793.482C130.901 768.369 80.2379 723.473 85.4222 654.128L83.4277 653.979L81.4333 653.829C76.1017 725.145 128.383 771.644 147.309 795.94L148.887 794.711ZM83.4277 653.979L85.4222 654.128C89.7343 596.45 111.276 557.489 142.666 534.571L141.486 532.956L140.307 531.341C107.763 555.101 85.8116 595.267 81.4333 653.829L83.4277 653.979ZM141.486 532.956L142.666 534.571C173.95 511.731 214.24 505.396 255.04 511.327L255.328 509.348L255.616 507.368C214.094 501.333 172.662 507.719 140.307 531.341L141.486 532.956ZM255.328 509.348L255.04 511.327C313.603 519.84 374.587 553.868 413.688 603.046L415.254 601.802L416.819 600.557C377.078 550.574 315.176 516.026 255.616 507.368L255.328 509.348ZM415.254 601.802L415.549 603.78C583.307 578.732 665.849 542.877 725.335 506.869L724.3 505.158L723.264 503.447C664.319 539.127 582.305 574.837 414.959 599.824L415.254 601.802ZM724.3 505.158L725.335 506.869C792.131 466.437 832.014 424.064 930.682 396.765L930.148 394.838L929.615 392.91C830.24 420.405 789.32 463.463 723.264 503.447L724.3 505.158ZM930.148 394.838L930.682 396.765C969.367 386.062 1008.95 383.875 1046.79 388.509L1047.04 386.523L1047.28 384.538C1008.95 379.845 968.842 382.057 929.615 392.91L930.148 394.838ZM1047.04 386.523L1049.03 386.647C1049.69 375.955 1049.8 365.396 1049.71 355.337L1047.71 355.354L1045.71 355.37C1045.8 365.383 1045.69 375.839 1045.04 386.4L1047.04 386.523ZM1047.71 355.354L1049.71 355.337C1049.63 344.878 1049.33 334.248 1049.29 325.457L1047.29 325.466L1045.29 325.475C1045.33 334.139 1045.63 345.162 1045.71 355.37L1047.71 355.354ZM1047.29 325.466L1049.29 325.457C1049.25 316.476 1049.46 308.329 1050.47 301.741L1048.49 301.438L1046.52 301.134C1045.45 308.058 1045.25 316.477 1045.29 325.475L1047.29 325.466ZM1048.49 301.438L1050.47 301.741L1050.77 299.765L1048.8 299.461L1046.82 299.157L1046.52 301.134L1048.49 301.438ZM1048.8 299.461L1048.49 301.438L1050.47 301.741L1050.77 299.765L1051.08 297.788L1049.1 297.484L1048.8 299.461ZM46.6309 750.973L47.1238 749.034C42.1109 747.76 36.7882 749.232 31.5923 753.264L32.8184 754.844L34.0444 756.424C38.5695 752.913 42.6488 752.024 46.138 752.911L46.6309 750.973ZM32.8184 754.844L31.5923 753.264C26.2589 757.402 21.6041 763.852 18.4244 771.171L20.2588 771.968L22.0932 772.765C25.0716 765.909 29.3592 760.059 34.0444 756.424L32.8184 754.844ZM20.2588 771.968L18.4244 771.171C15.2448 778.49 13.5405 786.679 14.1061 794.294L16.1006 794.146L18.0951 793.997C17.5861 787.145 19.1213 779.606 22.0932 772.765L20.2588 771.968ZM16.1006 794.146L14.1061 794.294C14.6584 801.728 17.3438 808.246 22.5465 812.931L23.8848 811.444L25.2231 809.958C20.9462 806.107 18.5886 800.64 18.0951 793.997L16.1006 794.146ZM23.8848 811.444L22.5465 812.931C27.753 817.618 36.07 821.001 48.9072 821.001L48.9072 819.001L48.9072 817.001C36.771 817.001 29.5061 813.814 25.223 809.958L23.8848 811.444ZM48.9072 819.001V821.001C59.3765 821.001 68.9629 820.923 77.7265 820.769L77.6914 818.77L77.6564 816.77C68.9197 816.923 59.357 817.001 48.9072 817.001V819.001ZM77.6914 818.77L79.6677 818.462C75.7922 793.537 70.2768 776.449 64.1262 765.354L62.377 766.323L60.6277 767.293C66.4595 777.813 71.8762 794.386 75.7152 819.077L77.6914 818.77ZM62.377 766.323L64.1262 765.354C58.2678 754.785 52.2223 750.331 47.1239 749.034L46.6309 750.973L46.1379 752.911C49.7756 753.836 55.0698 757.267 60.6277 767.293L62.377 766.323ZM1059.68 402.528L1057.7 402.299C1056.81 409.992 1055.57 417.711 1053.83 425.319L1055.78 425.765L1057.73 426.21C1059.51 418.435 1060.77 410.568 1061.67 402.757L1059.68 402.528ZM1055.78 425.765L1053.83 425.319C1048.42 449.031 1038.17 471.964 1018.97 489.713L1020.33 491.182L1021.69 492.65C1041.66 474.187 1052.2 450.427 1057.73 426.21L1055.78 425.765ZM1020.33 491.182L1018.97 489.713C999.731 507.496 971.978 519.63 932.389 522.598L932.538 524.593L932.688 526.587C972.969 523.567 1001.64 511.175 1021.69 492.65L1020.33 491.182ZM932.538 524.593L932.389 522.598C883.642 526.253 852.496 538.189 833.172 553.97L834.438 555.52L835.703 557.069C854.16 541.995 884.399 530.207 932.688 526.587L932.538 524.593ZM834.438 555.52L833.172 553.97C813.992 569.635 805.958 589.498 804.222 610.266L806.215 610.433L808.208 610.599C809.87 590.717 817.503 571.932 835.703 557.069L834.438 555.52ZM806.215 610.433L804.222 610.266C802.467 631.257 807.147 652.99 813.375 671.777L815.273 671.147L817.172 670.518C811.026 651.977 806.517 630.83 808.208 610.599L806.215 610.433ZM815.273 671.147L813.375 671.777C819.582 690.5 827.325 706.297 831.765 715.519L833.567 714.651L835.369 713.784C830.92 704.544 823.287 688.964 817.172 670.518L815.273 671.147ZM833.567 714.651L831.857 715.689C854.582 753.146 889.803 793.528 942.619 807.734L943.139 805.803L943.658 803.871C892.29 790.055 857.775 750.698 835.277 713.614L833.567 714.651ZM943.139 805.803L942.619 807.734C995.397 821.929 1067.22 810.363 1163.98 740.447L1162.81 738.826L1161.64 737.205C1065.43 806.72 994.849 817.64 943.658 803.871L943.139 805.803ZM1162.81 738.826L1163.98 740.447C1224.17 696.962 1252.92 650.714 1259.57 607.176L1257.59 606.874L1255.62 606.572C1249.18 648.744 1221.24 694.14 1161.64 737.205L1162.81 738.826ZM1257.59 606.874L1259.57 607.176C1266.22 563.664 1250.93 521.903 1221.08 487.022L1219.56 488.322L1218.04 489.623C1247.3 523.817 1262.05 564.445 1255.62 606.572L1257.59 606.874ZM1219.56 488.322L1221.08 487.022C1184.22 443.94 1125.46 411.79 1060.02 400.557L1059.68 402.528L1059.35 404.499C1123.99 415.596 1181.86 447.341 1218.04 489.623L1219.56 488.322ZM409.124 616.853L408.837 614.873C391.879 617.33 374.081 619.678 355.383 621.906L355.62 623.892L355.857 625.878C374.586 623.646 392.417 621.293 409.411 618.832L409.124 616.853ZM355.62 623.892L353.629 624.076L353.689 624.729L355.681 624.544L357.672 624.359L357.612 623.707L355.62 623.892ZM355.681 624.544L355.497 622.552L353.505 622.736L353.688 624.728L353.872 626.719L355.864 626.536L355.681 624.544ZM353.688 624.728L353.505 622.736C332.46 624.679 301.968 632.864 278.861 650.806L280.088 652.386L281.314 653.965C303.64 636.63 333.325 628.616 353.872 626.719L353.688 624.728ZM280.088 652.386L278.861 650.806C267.472 659.649 257.842 670.871 252.012 685.025L253.861 685.787L255.711 686.549C261.224 673.164 270.358 662.473 281.314 653.965L280.088 652.386ZM253.861 685.787L252.012 685.025C246.182 699.18 244.151 716.269 247.962 736.848L249.929 736.483L251.895 736.119C248.208 716.209 250.206 699.912 255.711 686.549L253.861 685.787ZM249.929 736.483L247.962 736.848C252.608 761.934 269.423 779.881 291.878 790.35L292.723 788.537L293.568 786.724C272.027 776.681 256.258 759.678 251.895 736.119L249.929 736.483ZM292.723 788.537L291.878 790.35C314.412 800.856 342.371 803.664 368.293 798.359L367.892 796.399L367.491 794.44C342.331 799.589 315.255 796.835 293.568 786.724L292.723 788.537ZM367.892 796.399L368.293 798.359C394.207 793.055 417.586 779.762 431.528 758.629L429.858 757.527L428.189 756.426C414.968 776.467 392.636 789.294 367.491 794.44L367.892 796.399ZM429.858 757.527L431.528 758.629C445.383 737.627 450.42 708.12 438.272 669.248L436.363 669.845L434.454 670.441C446.319 708.41 441.255 736.621 428.189 756.426L429.858 757.527ZM436.363 669.845L438.272 669.248C432.284 650.085 422.792 632.085 410.736 615.669L409.124 616.853L407.512 618.036C419.337 634.137 428.612 651.746 434.454 670.441L436.363 669.845Z" fill="black"/>
<rect x="63.9102" y="869" width="52" height="33" fill="#A1ADCB"/>
<rect x="988.91" y="309" width="126" height="23" fill="#A1ADCB"/>
<path d="M967.91 168H1135.91V275C1135.91 280.523 1131.43 285 1125.91 285H977.91C972.387 285 967.91 280.523 967.91 275V168Z" fill="#A1ADCB"/>
<rect x="2" y="-2" width="201" height="246" rx="8" transform="matrix(1 0 0 -1 947.91 299)" stroke="black" stroke-width="4"/>
<rect x="2" y="-2" width="167" height="213" rx="8" transform="matrix(1 0 0 -1 964.91 283)" stroke="black" stroke-width="4"/>
<rect x="990.91" y="258" width="126" height="78" rx="11" fill="#A1ADCB"/>
<path d="M1117.91 285V327C1117.91 331.418 1114.33 335 1109.91 335H996.91C992.492 335 988.91 331.418 988.91 327V285H1117.91Z" stroke="black" stroke-width="4"/>
<line x1="990.91" y1="217" x2="990.91" y2="270" stroke="white" stroke-width="4"/>
<line x1="990.91" y1="180" x2="990.91" y2="205" stroke="white" stroke-width="4"/>
<rect x="1016.91" y="22" width="68" height="33" rx="8" stroke="black" stroke-width="4"/>
<rect x="990.91" y="277" width="125" height="33" fill="#A1ADCB"/>
<rect x="1049.4" y="330.26" width="9.94674" height="17" transform="rotate(-0.786671 1049.4 330.26)" fill="#A1ADCB"/>
</svg>
