<svg width="1310" height="335" viewBox="0 0 1310 335" fill="none" xmlns="http://www.w3.org/2000/svg">
<line x1="-2.62268e-07" y1="206" x2="1310" y2="206" stroke="white" stroke-width="6" stroke-dasharray="50 30"/>
<path d="M861.168 23.6915C861.168 34.2054 850.751 23.6915 837.9 23.6915C825.05 23.6915 814.633 34.2054 814.633 23.6915C814.633 13.1775 825.05 4.6543 837.9 4.6543C850.751 4.6543 861.168 13.1775 861.168 23.6915Z" fill="#A1ADCB"/>
<rect x="869.105" y="3" width="395.896" height="278.853" fill="white" stroke="black" stroke-width="6"/>
<rect x="921.281" y="50.9453" width="294.364" height="126.555" fill="white" stroke="black" stroke-width="6"/>
<circle cx="1201.72" cy="293.314" r="37.8947" fill="white" stroke="black" stroke-width="6"/>
<circle cx="1202.78" cy="293.666" r="22.9151" fill="black"/>
<mask id="path-7-inside-1_360_4" fill="white">
<path d="M870.334 284.853H720.152C708.47 284.852 699 275.382 699 263.7V133.965C699 122.283 708.47 112.813 720.152 112.812H744.83V47.9453H870.334V284.853Z"/>
</mask>
<path d="M870.334 284.853H720.152C708.47 284.852 699 275.382 699 263.7V133.965C699 122.283 708.47 112.813 720.152 112.812H744.83V47.9453H870.334V284.853Z" fill="white"/>
<path d="M870.334 284.853V290.853H876.334V284.853H870.334ZM720.152 284.853L720.152 290.853H720.152V284.853ZM699 263.7H693V263.7L699 263.7ZM699 133.965L693 133.965V133.965H699ZM720.152 112.812V106.812H720.152L720.152 112.812ZM744.83 112.812V118.812H750.83V112.812H744.83ZM744.83 47.9453V41.9453H738.83V47.9453H744.83ZM870.334 47.9453H876.334V41.9453H870.334V47.9453ZM870.334 284.853V278.853H720.152V284.853V290.853H870.334V284.853ZM720.152 284.853L720.152 278.853C711.784 278.853 705 272.069 705 263.7L699 263.7L693 263.7C693 278.696 705.157 290.852 720.152 290.853L720.152 284.853ZM699 263.7H705V133.965H699H693V263.7H699ZM699 133.965L705 133.965C705 125.597 711.784 118.813 720.152 118.812L720.152 112.812L720.152 106.812C705.157 106.813 693 118.969 693 133.965L699 133.965ZM720.152 112.812V118.812H744.83V112.812V106.812H720.152V112.812ZM744.83 112.812H750.83V47.9453H744.83H738.83V112.812H744.83ZM744.83 47.9453V53.9453H870.334V47.9453V41.9453H744.83V47.9453ZM870.334 47.9453H864.334V284.853H870.334H876.334V47.9453H870.334Z" fill="black" mask="url(#path-7-inside-1_360_4)"/>
<rect x="792.25" y="24.1523" width="75.0843" height="25.0235" fill="white" stroke="black" stroke-width="6"/>
<rect x="872" y="209" width="391" height="24" fill="black"/>
<rect x="763.162" y="65.5723" width="90.9554" height="71.2131" fill="black"/>
<rect x="766.162" y="129.915" width="84.9554" height="115.979" stroke="black" stroke-width="6"/>
<path d="M715.922 137.138C715.922 131.492 720.499 126.915 726.146 126.915H742.01V147.362H726.146C720.499 147.362 715.922 142.785 715.922 137.138Z" fill="black"/>
<path d="M819.57 144.894C819.57 143.531 820.675 142.426 822.038 142.426H845.658V147.362H822.038C820.675 147.362 819.57 146.257 819.57 144.894Z" fill="black"/>
<rect x="1059.35" y="72.6235" width="15.0992" height="83.1995" fill="#A1ADCB"/>
<rect width="15.0992" height="83.1995" transform="matrix(0 -1 -1 0 1108.65 121.619)" fill="#A1ADCB"/>
<circle cx="812.895" cy="293.549" r="37.8947" fill="white" stroke="black" stroke-width="6"/>
<circle cx="813.954" cy="293.901" r="22.9151" fill="black"/>
<rect x="705" y="209" width="160" height="24" fill="black"/>
</svg>
