<svg width="1440" height="859" viewBox="0 0 1440 859" fill="none" xmlns="http://www.w3.org/2000/svg">
<rect x="-7" width="1451" height="859" fill="#A1ADCB"/>
<path d="M1340.71 98L1263.75 671H1085.72L1000.32 98H1340.71Z" fill="white" stroke="black" stroke-width="4"/>
<path d="M1312.72 308.5L1289.25 484.5H1058.71L1031.34 308.5H1312.72Z" fill="#A1ADCB" stroke="black" stroke-width="4"/>
<rect x="1080" y="670.5" width="190" height="111" fill="black" stroke="black" stroke-width="4"/>
<line x1="1009" y1="152.5" x2="1332" y2="152.5" stroke="black" stroke-width="4"/>
<line x1="1028" y1="98.5" x2="1028" y2="154.5" stroke="black" stroke-width="4"/>
<line x1="1046" y1="98.5" x2="1046" y2="154.5" stroke="black" stroke-width="4"/>
<line x1="1064" y1="98.5" x2="1064" y2="154.5" stroke="black" stroke-width="4"/>
<line x1="1082" y1="98.5" x2="1082" y2="154.5" stroke="black" stroke-width="4"/>
<line x1="1100" y1="98.5" x2="1100" y2="154.5" stroke="black" stroke-width="4"/>
<line x1="1118" y1="98.5" x2="1118" y2="154.5" stroke="black" stroke-width="4"/>
<line x1="1136" y1="98.5" x2="1136" y2="154.5" stroke="black" stroke-width="4"/>
<line x1="1154" y1="98.5" x2="1154" y2="154.5" stroke="black" stroke-width="4"/>
<line x1="1172" y1="98.5" x2="1172" y2="154.5" stroke="black" stroke-width="4"/>
<line x1="1190" y1="98.5" x2="1190" y2="154.5" stroke="black" stroke-width="4"/>
<line x1="1208" y1="98.5" x2="1208" y2="154.5" stroke="black" stroke-width="4"/>
<line x1="1226" y1="98.5" x2="1226" y2="154.5" stroke="black" stroke-width="4"/>
<line x1="1244" y1="98.5" x2="1244" y2="154.5" stroke="black" stroke-width="4"/>
<line x1="1262" y1="98.5" x2="1262" y2="154.5" stroke="black" stroke-width="4"/>
<line x1="1280" y1="98.5" x2="1280" y2="154.5" stroke="black" stroke-width="4"/>
<line x1="1298" y1="98.5" x2="1298" y2="154.5" stroke="black" stroke-width="4"/>
<line x1="1316" y1="98.5" x2="1316" y2="154.5" stroke="black" stroke-width="4"/>
<path d="M1150.4 457.5C1142.6 457.5 1134.4 454.5 1130.4 450.3L1137.8 438.3C1141 441.7 1145.4 443.5 1150.8 443.5C1158.8 443.5 1163 438.9 1168.4 426.1L1125.2 325.5H1142.6L1176.6 406.3L1209.8 325.5H1226.6L1183.8 427.9C1179.4 438.5 1174.8 446.1 1170 450.7C1165.4 455.1 1158.8 457.3 1150.4 457.5Z" fill="white"/>
<circle cx="1137" cy="447.5" r="23" stroke="black" stroke-width="4" stroke-dasharray="8 8"/>
<path d="M986.656 209L909.794 691.358H731.678L646.385 209H986.656Z" fill="white" stroke="black" stroke-width="4"/>
<path d="M958.658 386.432L935.291 534.156H704.665L677.403 386.432H958.658Z" fill="#A1ADCB" stroke="black" stroke-width="4"/>
<rect x="726" y="691.565" width="190" height="92.9345" fill="black" stroke="black" stroke-width="4"/>
<line x1="655" y1="254.31" x2="978" y2="254.31" stroke="black" stroke-width="4"/>
<line x1="674" y1="209.107" x2="674" y2="256.31" stroke="black" stroke-width="4"/>
<line x1="692" y1="209.107" x2="692" y2="256.31" stroke="black" stroke-width="4"/>
<line x1="710" y1="209.107" x2="710" y2="256.31" stroke="black" stroke-width="4"/>
<line x1="728" y1="209.107" x2="728" y2="256.31" stroke="black" stroke-width="4"/>
<line x1="746" y1="209.107" x2="746" y2="256.31" stroke="black" stroke-width="4"/>
<line x1="764" y1="209.107" x2="764" y2="256.31" stroke="black" stroke-width="4"/>
<line x1="782" y1="209.107" x2="782" y2="256.31" stroke="black" stroke-width="4"/>
<line x1="800" y1="209.107" x2="800" y2="256.31" stroke="black" stroke-width="4"/>
<line x1="818" y1="209.107" x2="818" y2="256.31" stroke="black" stroke-width="4"/>
<line x1="836" y1="209.107" x2="836" y2="256.31" stroke="black" stroke-width="4"/>
<line x1="854" y1="209.107" x2="854" y2="256.31" stroke="black" stroke-width="4"/>
<line x1="872" y1="209.107" x2="872" y2="256.31" stroke="black" stroke-width="4"/>
<line x1="890" y1="209.107" x2="890" y2="256.31" stroke="black" stroke-width="4"/>
<line x1="908" y1="209.107" x2="908" y2="256.31" stroke="black" stroke-width="4"/>
<line x1="926" y1="209.107" x2="926" y2="256.31" stroke="black" stroke-width="4"/>
<line x1="944" y1="209.107" x2="944" y2="256.31" stroke="black" stroke-width="4"/>
<line x1="962" y1="209.107" x2="962" y2="256.31" stroke="black" stroke-width="4"/>
<path d="M855 503C844.4 503 836 497 834.2 488.4C825.8 498.2 815.2 503 802.2 503C783.8 503 771.8 493 771.8 478C771.8 462.6 783.2 452.4 802.4 448.4C808.6 447 819 445.6 833.8 444V436.8C833.8 425.8 824.4 417.6 811.4 417.6C798.8 417.6 789.8 423.8 789.8 432C789.8 433 790 433.8 790.2 434.6L775.2 437.6C774.6 436 774.4 434 774.4 431.6C774.4 423.4 778 416.6 785.2 411.2C792.4 405.8 801.6 403 812.6 403C823.2 403 832.2 406 839.2 412C846.2 418 849.8 425.6 849.8 434.8V482C849.8 486 852.6 489 856.6 489C862 489 865.8 482 865.8 472.6L879.4 475.8C879.4 483.6 877 490.2 872.4 495.4C867.8 500.4 862 503 855 503ZM804 489.2C815.8 489.2 826.8 483.4 833.8 473.8V456.2C819.2 458 808.6 459.8 802 461.6C793.4 464 788.4 469.8 788.4 476.2C788.4 484 794.6 489.2 804 489.2Z" fill="white"/>
<circle cx="872" cy="484" r="19" stroke="black" stroke-width="4" stroke-dasharray="8 8"/>
<circle cx="781" cy="429" r="19" stroke="black" stroke-width="4" stroke-dasharray="8 8"/>
<path d="M206.8 363.6C201.8 357.4 195.6 354.4 188.2 354.4C180.8 354.4 174.6 357.4 169.6 363.4C164.6 369.4 162 377.2 162 387C162 396.8 164.6 404.6 169.6 410.6C174.6 416.6 180.8 419.6 188.2 419.6C195.6 419.6 201.8 416.6 206.8 410.6C211.8 404.4 214.4 396.6 214.4 387C214.4 377.4 211.8 369.6 206.8 363.6ZM182.6 478C167.2 478 155.4 473.2 147 463.6L156.6 451.8C163.4 459.6 172.6 463.6 184.4 463.6C203.4 463.6 212.8 449.4 212.8 420.8C205.4 429.6 196 434 184.4 434C173.4 434 164 429.8 156.6 421.4C149.2 412.8 145.6 401.4 145.6 387C145.6 372.6 149.2 361.2 156.6 352.8C164 344.2 173.4 340 184.4 340C196 340 205.4 344.4 212.6 353.2C212.4 350.6 212.4 347 212.4 342H228.4C228.2 350.6 228.2 363.4 228.2 380L228.2 420.4C228.2 458.8 213 478 182.6 478ZM416.044 384C419.244 387 423.444 388.6 428.844 388.6C434.244 388.6 438.444 387 441.644 384C445.044 381 446.644 376.8 446.644 371.8C446.644 366.8 445.044 362.8 441.644 359.8C438.444 356.8 434.244 355.2 428.844 355.2C423.444 355.2 419.244 356.8 416.044 359.8C413.044 362.8 411.444 366.8 411.444 371.8C411.444 376.8 413.044 381 416.044 384ZM481.644 443.2C481.644 455.2 476.444 464 469.444 468.8C466.044 471.2 461.644 473.2 456.444 474.6C446.044 477.6 438.044 478 426.844 478C395.444 478 379.644 468.6 379.644 449.8C379.644 441.6 383.644 434.4 391.844 428.2C386.444 424.2 383.644 418.8 383.644 412C383.644 403 389.244 395.8 400.444 390.4C396.844 385 395.044 378.8 395.044 371.8C395.044 352.8 408.644 340 428.844 340C439.044 340 447.444 343 453.844 349C459.244 343 465.044 340 471.444 340C478.444 340 484.244 342.2 488.444 346.8L480.244 357C477.444 354.8 474.444 353.8 471.244 353.8C468.244 353.8 464.844 356 461.044 360.6C462.244 364 462.844 367.6 462.844 371.8C462.844 391 449.444 403.8 428.844 403.8C421.844 403.8 415.444 402.2 409.644 399C403.444 401.6 400.444 405 400.444 409C400.444 414 403.644 416.4 409.844 416.4H450.444C469.644 416.4 481.644 426.2 481.644 443.2ZM430.044 462.4C440.644 462.4 446.844 462 454.044 459.8C461.244 457.6 464.844 453 464.844 445.8C464.644 436.6 458.844 432 447.844 432H404.844C399.044 436.8 395.844 442.2 395.644 448C395.644 453.8 398.044 457.8 403.044 459.6C408.044 461.4 417.044 462.4 430.044 462.4Z" fill="white"/>
<path d="M209.2 558.4C203.8 551.8 197 548.4 189.2 548.4C181.4 548.4 174.6 551.8 169.2 558.4C163.8 565 161 573.4 161 584C161 594.6 163.8 603.2 169.2 609.8C174.6 616.4 181.4 619.6 189.2 619.6C197 619.6 203.8 616.4 209.2 609.8C214.6 603.2 217.4 594.6 217.4 584C217.4 573.4 214.6 565 209.2 558.4ZM215.8 619.6L216 619C208.2 629 198 634 185.4 634C173.6 634 164 629.6 156.2 620.6C148.4 611.6 144.6 599.4 144.6 584C144.6 568.6 148.4 556.6 156.2 547.6C164 538.6 173.6 534 185.4 534C198 534 208 539 215.8 549V548.6C215.6 544.6 215.4 540.4 215.4 536H231.4C231.2 546.4 231.2 562.4 231.2 584C231.2 607.2 231.2 623.2 231.4 632H215.2C215.2 628.2 215.4 624 215.8 619.6ZM465.844 634C455.244 634 446.844 628 445.044 619.4C436.644 629.2 426.044 634 413.044 634C394.644 634 382.644 624 382.644 609C382.644 593.6 394.044 583.4 413.244 579.4C419.444 578 429.844 576.6 444.644 575V567.8C444.644 556.8 435.244 548.6 422.244 548.6C409.644 548.6 400.644 554.8 400.644 563C400.644 564 400.844 564.8 401.044 565.6L386.044 568.6C385.444 567 385.244 565 385.244 562.6C385.244 554.4 388.844 547.6 396.044 542.2C403.244 536.8 412.444 534 423.444 534C434.044 534 443.044 537 450.044 543C457.044 549 460.644 556.6 460.644 565.8V613C460.644 617 463.444 620 467.444 620C472.844 620 476.644 613 476.644 603.6L490.244 606.8C490.244 614.6 487.844 621.2 483.244 626.4C478.644 631.4 472.844 634 465.844 634ZM414.844 620.2C426.644 620.2 437.644 614.4 444.644 604.8V587.2C430.044 589 419.444 590.8 412.844 592.6C404.244 595 399.244 600.8 399.244 607.2C399.244 615 405.444 620.2 414.844 620.2Z" fill="white"/>
<path d="M348.414 399.414C349.195 398.633 349.195 397.367 348.414 396.586L335.686 383.858C334.905 383.077 333.639 383.077 332.858 383.858C332.077 384.639 332.077 385.905 332.858 386.686L344.172 398L332.858 409.314C332.077 410.095 332.077 411.361 332.858 412.142C333.639 412.923 334.905 412.923 335.686 412.142L348.414 399.414ZM266 398V400H347V398V396H266V398Z" fill="white"/>
<path d="M348.414 574.414C349.195 573.633 349.195 572.367 348.414 571.586L335.686 558.858C334.905 558.077 333.639 558.077 332.858 558.858C332.077 559.639 332.077 560.905 332.858 561.686L344.172 573L332.858 584.314C332.077 585.095 332.077 586.361 332.858 587.142C333.639 587.923 334.905 587.923 335.686 587.142L348.414 574.414ZM266 573V575H347V573V571H266V573Z" fill="white"/>
</svg>
