<svg width="458" height="40" viewBox="0 0 458 40" fill="none" xmlns="http://www.w3.org/2000/svg">
<line y1="-2" x2="39.3072" y2="-2" transform="matrix(-0.0172389 0.999851 -0.999861 -0.0166596 248.686 0)" stroke="#A1ADCB" stroke-width="4"/>
<line y1="-2" x2="39.3072" y2="-2" transform="matrix(-0.0172389 0.999851 -0.999861 -0.0166596 207.352 0)" stroke="#A1ADCB" stroke-width="4"/>
<line x1="224" y1="22" x2="224" y2="39" stroke="#A1ADCB" stroke-width="4"/>
<line x1="242" y1="22" x2="242" y2="39" stroke="#A1ADCB" stroke-width="4"/>
<line x1="234" y1="22" x2="234" y2="39" stroke="#A1ADCB" stroke-width="4"/>
<line x1="216" y1="22" x2="216" y2="39" stroke="#A1ADCB" stroke-width="4"/>
<line y1="-2" x2="39.3072" y2="-2" transform="matrix(-0.0172389 0.999851 -0.999861 -0.0166596 207.352 0)" stroke="#A1ADCB" stroke-width="4"/>
<line y1="-2" x2="39.3072" y2="-2" transform="matrix(-0.0172389 0.999851 -0.999861 -0.0166596 166.016 0)" stroke="#A1ADCB" stroke-width="4"/>
<line x1="184" y1="22" x2="184" y2="39" stroke="#A1ADCB" stroke-width="4"/>
<line x1="200" y1="22" x2="200" y2="39" stroke="#A1ADCB" stroke-width="4"/>
<line x1="192" y1="22" x2="192" y2="39" stroke="#A1ADCB" stroke-width="4"/>
<line x1="175" y1="22" x2="175" y2="39" stroke="#A1ADCB" stroke-width="4"/>
<line y1="-2" x2="39.3072" y2="-2" transform="matrix(-0.0172389 0.999851 -0.999861 -0.0166596 166.016 0)" stroke="#A1ADCB" stroke-width="4"/>
<line y1="-2" x2="39.3072" y2="-2" transform="matrix(-0.0172389 0.999851 -0.999861 -0.0166596 124.684 0)" stroke="#A1ADCB" stroke-width="4"/>
<line x1="142" y1="22" x2="142" y2="39" stroke="#A1ADCB" stroke-width="4"/>
<line x1="159" y1="22" x2="159" y2="39" stroke="#A1ADCB" stroke-width="4"/>
<line x1="151" y1="22" x2="151" y2="39" stroke="#A1ADCB" stroke-width="4"/>
<line x1="134" y1="22" x2="134" y2="39" stroke="#A1ADCB" stroke-width="4"/>
<line y1="-2" x2="39.3072" y2="-2" transform="matrix(-0.0172389 0.999851 -0.999861 -0.0166596 124.684 0)" stroke="#A1ADCB" stroke-width="4"/>
<line y1="-2" x2="39.3072" y2="-2" transform="matrix(-0.0172389 0.999851 -0.999861 -0.0166596 83.3477 0)" stroke="#A1ADCB" stroke-width="4"/>
<line x1="101" y1="22" x2="101" y2="39" stroke="#A1ADCB" stroke-width="4"/>
<line x1="117" y1="22" x2="117" y2="39" stroke="#A1ADCB" stroke-width="4"/>
<line x1="110" y1="22" x2="110" y2="39" stroke="#A1ADCB" stroke-width="4"/>
<line x1="93" y1="22" x2="93" y2="39" stroke="#A1ADCB" stroke-width="4"/>
<line y1="-2" x2="39.3072" y2="-2" transform="matrix(-0.0172389 0.999851 -0.999861 -0.0166596 83.3477 0)" stroke="#A1ADCB" stroke-width="4"/>
<line y1="-2" x2="39.3072" y2="-2" transform="matrix(-0.0172389 0.999851 -0.999861 -0.0166596 42.0117 0)" stroke="#A1ADCB" stroke-width="4"/>
<line x1="60" y1="22" x2="60" y2="39" stroke="#A1ADCB" stroke-width="4"/>
<line x1="75" y1="22" x2="75" y2="39" stroke="#A1ADCB" stroke-width="4"/>
<line x1="69" y1="22" x2="69" y2="39" stroke="#A1ADCB" stroke-width="4"/>
<line x1="51" y1="22" x2="51" y2="39" stroke="#A1ADCB" stroke-width="4"/>
<line y1="-2" x2="39.3072" y2="-2" transform="matrix(-0.0172389 0.999851 -0.999861 -0.0166596 42.0117 0)" stroke="#A1ADCB" stroke-width="4"/>
<line y1="-2" x2="39.3072" y2="-2" transform="matrix(-0.0172389 0.999851 -0.999861 -0.0166596 0.677734 0)" stroke="#A1ADCB" stroke-width="4"/>
<line x1="18" y1="22" x2="18" y2="39" stroke="#A1ADCB" stroke-width="4"/>
<line x1="34" y1="22" x2="34" y2="39" stroke="#A1ADCB" stroke-width="4"/>
<line x1="26" y1="22" x2="26" y2="39" stroke="#A1ADCB" stroke-width="4"/>
<line x1="10" y1="22" x2="10" y2="39" stroke="#A1ADCB" stroke-width="4"/>
<line y1="-2" x2="39.3072" y2="-2" transform="matrix(-0.0172389 0.999851 -0.999861 -0.0166596 248.686 0)" stroke="#A1ADCB" stroke-width="4"/>
<line y1="-2" x2="39.3072" y2="-2" transform="matrix(-0.0172389 0.999851 -0.999861 -0.0166596 207.352 0)" stroke="#A1ADCB" stroke-width="4"/>
<line x1="224" y1="22" x2="224" y2="39" stroke="#A1ADCB" stroke-width="4"/>
<line x1="242" y1="22" x2="242" y2="39" stroke="#A1ADCB" stroke-width="4"/>
<line x1="234" y1="22" x2="234" y2="39" stroke="#A1ADCB" stroke-width="4"/>
<line x1="216" y1="22" x2="216" y2="39" stroke="#A1ADCB" stroke-width="4"/>
<line y1="-2" x2="39.3072" y2="-2" transform="matrix(-0.0172389 0.999851 -0.999861 -0.0166596 207.352 0)" stroke="#A1ADCB" stroke-width="4"/>
<line y1="-2" x2="39.3072" y2="-2" transform="matrix(-0.0172389 0.999851 -0.999861 -0.0166596 166.016 0)" stroke="#A1ADCB" stroke-width="4"/>
<line x1="184" y1="22" x2="184" y2="39" stroke="#A1ADCB" stroke-width="4"/>
<line x1="200" y1="22" x2="200" y2="39" stroke="#A1ADCB" stroke-width="4"/>
<line x1="192" y1="22" x2="192" y2="39" stroke="#A1ADCB" stroke-width="4"/>
<line x1="175" y1="22" x2="175" y2="39" stroke="#A1ADCB" stroke-width="4"/>
<line y1="-2" x2="39.3072" y2="-2" transform="matrix(-0.0172389 0.999851 -0.999861 -0.0166596 166.016 0)" stroke="#A1ADCB" stroke-width="4"/>
<line y1="-2" x2="39.3072" y2="-2" transform="matrix(-0.0172389 0.999851 -0.999861 -0.0166596 124.684 0)" stroke="#A1ADCB" stroke-width="4"/>
<line x1="142" y1="22" x2="142" y2="39" stroke="#A1ADCB" stroke-width="4"/>
<line x1="159" y1="22" x2="159" y2="39" stroke="#A1ADCB" stroke-width="4"/>
<line x1="151" y1="22" x2="151" y2="39" stroke="#A1ADCB" stroke-width="4"/>
<line x1="134" y1="22" x2="134" y2="39" stroke="#A1ADCB" stroke-width="4"/>
<line y1="-2" x2="39.3072" y2="-2" transform="matrix(-0.0172389 0.999851 -0.999861 -0.0166596 124.684 0)" stroke="#A1ADCB" stroke-width="4"/>
<line y1="-2" x2="39.3072" y2="-2" transform="matrix(-0.0172389 0.999851 -0.999861 -0.0166596 83.3477 0)" stroke="#A1ADCB" stroke-width="4"/>
<line x1="101" y1="22" x2="101" y2="39" stroke="#A1ADCB" stroke-width="4"/>
<line x1="117" y1="22" x2="117" y2="39" stroke="#A1ADCB" stroke-width="4"/>
<line x1="110" y1="22" x2="110" y2="39" stroke="#A1ADCB" stroke-width="4"/>
<line x1="93" y1="22" x2="93" y2="39" stroke="#A1ADCB" stroke-width="4"/>
<line y1="-2" x2="39.3072" y2="-2" transform="matrix(-0.0172389 0.999851 -0.999861 -0.0166596 83.3477 0)" stroke="#A1ADCB" stroke-width="4"/>
<line y1="-2" x2="39.3072" y2="-2" transform="matrix(-0.0172389 0.999851 -0.999861 -0.0166596 42.0117 0)" stroke="#A1ADCB" stroke-width="4"/>
<line x1="60" y1="22" x2="60" y2="39" stroke="#A1ADCB" stroke-width="4"/>
<line x1="75" y1="22" x2="75" y2="39" stroke="#A1ADCB" stroke-width="4"/>
<line x1="69" y1="22" x2="69" y2="39" stroke="#A1ADCB" stroke-width="4"/>
<line x1="51" y1="22" x2="51" y2="39" stroke="#A1ADCB" stroke-width="4"/>
<line y1="-2" x2="39.3072" y2="-2" transform="matrix(-0.0172389 0.999851 -0.999861 -0.0166596 42.0117 0)" stroke="#A1ADCB" stroke-width="4"/>
<line y1="-2" x2="39.3072" y2="-2" transform="matrix(-0.0172389 0.999851 -0.999861 -0.0166596 0.677734 0)" stroke="#A1ADCB" stroke-width="4"/>
<line x1="18" y1="22" x2="18" y2="39" stroke="#A1ADCB" stroke-width="4"/>
<line x1="34" y1="22" x2="34" y2="39" stroke="#A1ADCB" stroke-width="4"/>
<line x1="26" y1="22" x2="26" y2="39" stroke="#A1ADCB" stroke-width="4"/>
<line x1="10" y1="22" x2="10" y2="39" stroke="#A1ADCB" stroke-width="4"/>
<line y1="-2" x2="39.3072" y2="-2" transform="matrix(-0.0172389 0.999851 -0.999861 -0.0166596 454 0)" stroke="#A1ADCB" stroke-width="4"/>
<line y1="-2" x2="39.3072" y2="-2" transform="matrix(-0.0172389 0.999851 -0.999861 -0.0166596 454 0)" stroke="#A1ADCB" stroke-width="4"/>
<line y1="-2" x2="39.3072" y2="-2" transform="matrix(-0.0172389 0.999851 -0.999861 -0.0166596 412.666 0)" stroke="#A1ADCB" stroke-width="4"/>
<line x1="431" y1="22" x2="431" y2="39" stroke="#A1ADCB" stroke-width="4"/>
<line x1="446" y1="22" x2="446" y2="39" stroke="#A1ADCB" stroke-width="4"/>
<line x1="439" y1="22" x2="439" y2="39" stroke="#A1ADCB" stroke-width="4"/>
<line x1="422" y1="22" x2="422" y2="39" stroke="#A1ADCB" stroke-width="4"/>
<line y1="-2" x2="39.3072" y2="-2" transform="matrix(-0.0172389 0.999851 -0.999861 -0.0166596 412.666 0)" stroke="#A1ADCB" stroke-width="4"/>
<line y1="-2" x2="39.3072" y2="-2" transform="matrix(-0.0172389 0.999851 -0.999861 -0.0166596 371.332 0)" stroke="#A1ADCB" stroke-width="4"/>
<line x1="388" y1="22" x2="388" y2="39" stroke="#A1ADCB" stroke-width="4"/>
<line x1="405" y1="22" x2="405" y2="39" stroke="#A1ADCB" stroke-width="4"/>
<line x1="397" y1="22" x2="397" y2="39" stroke="#A1ADCB" stroke-width="4"/>
<line x1="381" y1="22" x2="381" y2="39" stroke="#A1ADCB" stroke-width="4"/>
<line y1="-2" x2="39.3072" y2="-2" transform="matrix(-0.0172389 0.999851 -0.999861 -0.0166596 371.332 0)" stroke="#A1ADCB" stroke-width="4"/>
<line y1="-2" x2="39.3072" y2="-2" transform="matrix(-0.0172389 0.999851 -0.999861 -0.0166596 329.998 0)" stroke="#A1ADCB" stroke-width="4"/>
<line x1="348" y1="22" x2="348" y2="39" stroke="#A1ADCB" stroke-width="4"/>
<line x1="363" y1="22" x2="363" y2="39" stroke="#A1ADCB" stroke-width="4"/>
<line x1="356" y1="22" x2="356" y2="39" stroke="#A1ADCB" stroke-width="4"/>
<line x1="339" y1="22" x2="339" y2="39" stroke="#A1ADCB" stroke-width="4"/>
<line y1="-2" x2="39.3072" y2="-2" transform="matrix(-0.0172389 0.999851 -0.999861 -0.0166596 329.998 0)" stroke="#A1ADCB" stroke-width="4"/>
<line y1="-2" x2="39.3072" y2="-2" transform="matrix(-0.0172389 0.999851 -0.999861 -0.0166596 288.662 0)" stroke="#A1ADCB" stroke-width="4"/>
<line x1="306" y1="22" x2="306" y2="39" stroke="#A1ADCB" stroke-width="4"/>
<line x1="323" y1="22" x2="323" y2="39" stroke="#A1ADCB" stroke-width="4"/>
<line x1="314" y1="22" x2="314" y2="39" stroke="#A1ADCB" stroke-width="4"/>
<line x1="298" y1="22" x2="298" y2="39" stroke="#A1ADCB" stroke-width="4"/>
<line y1="-2" x2="39.3072" y2="-2" transform="matrix(-0.0172389 0.999851 -0.999861 -0.0166596 288.662 0)" stroke="#A1ADCB" stroke-width="4"/>
<line x1="266" y1="22" x2="266" y2="39" stroke="#A1ADCB" stroke-width="4"/>
<line x1="282" y1="22" x2="282" y2="39" stroke="#A1ADCB" stroke-width="4"/>
<line x1="274" y1="22" x2="274" y2="39" stroke="#A1ADCB" stroke-width="4"/>
<line x1="257" y1="22" x2="257" y2="39" stroke="#A1ADCB" stroke-width="4"/>
</svg>
