<svg width="1440" height="593" viewBox="0 0 1440 593" fill="none" xmlns="http://www.w3.org/2000/svg">
<rect x="104.881" y="155.94" width="209.969" height="381.762" transform="rotate(30 104.881 155.94)" fill="black"/>
<rect x="85.9531" y="130.635" width="268.063" height="12.4488" transform="rotate(30 85.9531 130.635)" fill="black"/>
<rect x="104.154" y="103.11" width="264.063" height="30.9375" transform="rotate(30 104.154 103.11)" fill="white" stroke="black" stroke-width="4"/>
<rect x="120.857" y="48.2801" width="285.641" height="74.2894" transform="rotate(30 120.857 48.2801)" fill="white" stroke="black" stroke-width="4"/>
<rect x="201.187" y="6.73205" width="188.541" height="72.3524" transform="rotate(30 201.187 6.73205)" fill="white" stroke="black" stroke-width="4"/>
<rect x="163.595" y="56.9015" width="203.479" height="13.0015" transform="rotate(30 163.595 56.9015)" fill="white" stroke="black" stroke-width="4"/>
<rect x="80.3984" y="198.345" width="207.981" height="283.002" transform="rotate(30 80.3984 198.345)" fill="white"/>
<line x1="120.943" y1="221.752" x2="-20.5579" y2="466.839" stroke="black" stroke-width="4"/>
<line x1="200.002" y1="267.398" x2="58.5007" y2="512.484" stroke="black" stroke-width="4"/>
<line x1="259.816" y1="303.085" x2="117.07" y2="550.328" stroke="black" stroke-width="4"/>
<line x1="82.1305" y1="199.345" x2="-60.6153" y2="446.588" stroke="black" stroke-width="4"/>
<line x1="119.738" y1="550.148" x2="-62.1003" y2="445.164" stroke="black" stroke-width="4"/>
<line x1="261.24" y1="305.061" x2="79.4017" y2="200.077" stroke="black" stroke-width="4"/>
<rect x="492.881" y="151.94" width="209.969" height="381.762" transform="rotate(30 492.881 151.94)" fill="black"/>
<rect x="473.953" y="126.635" width="268.063" height="12.4488" transform="rotate(30 473.953 126.635)" fill="black"/>
<rect x="479.762" y="116.573" width="268.063" height="11.6188" transform="rotate(30 479.762 116.573)" fill="black"/>
<rect x="507.156" y="44.2256" width="289.641" height="76.3524" transform="rotate(30 507.156 44.2256)" fill="black"/>
<rect x="588.455" y="3" width="192.541" height="76.3524" transform="rotate(30 588.455 3)" fill="black"/>
<rect x="550.863" y="53.1694" width="207.479" height="14.1086" transform="rotate(30 550.863 53.1694)" fill="black"/>
<rect x="468.398" y="194.345" width="207.591" height="283.002" transform="rotate(30 468.398 194.345)" fill="white"/>
<line x1="508.943" y1="217.752" x2="367.442" y2="462.839" stroke="black" stroke-width="4"/>
<line x1="588.002" y1="263.398" x2="446.501" y2="508.484" stroke="black" stroke-width="4"/>
<line x1="649.24" y1="301.061" x2="467.402" y2="196.077" stroke="black" stroke-width="4"/>
<rect x="1269.88" y="157" width="209.969" height="381.762" transform="rotate(30 1269.88 157)" fill="black"/>
<rect x="1250.95" y="131.635" width="268.063" height="12.4488" transform="rotate(30 1250.95 131.635)" fill="black"/>
<rect x="1256.76" y="121.573" width="268.063" height="11.6188" transform="rotate(30 1256.76 121.573)" fill="black"/>
<rect x="1284.15" y="49.2256" width="289.641" height="76.3524" transform="rotate(30 1284.15 49.2256)" fill="black"/>
<rect x="1365.45" y="8" width="192.541" height="76.3524" transform="rotate(30 1365.45 8)" fill="black"/>
<rect x="1327.86" y="58.1694" width="207.479" height="14.1086" transform="rotate(30 1327.86 58.1694)" fill="black"/>
<rect x="1245.39" y="199.345" width="206.428" height="283.002" transform="rotate(30 1245.39 199.345)" fill="white"/>
<line x1="1285.94" y1="222.752" x2="1144.44" y2="467.839" stroke="black" stroke-width="4"/>
<line x1="1365" y1="268.398" x2="1223.5" y2="513.484" stroke="black" stroke-width="4"/>
<line x1="1247.13" y1="200.345" x2="1104.38" y2="447.588" stroke="black" stroke-width="4"/>
<line x1="1284.73" y1="551.148" x2="1102.9" y2="446.164" stroke="black" stroke-width="4"/>
<line x1="1426.24" y1="306.061" x2="1244.4" y2="201.077" stroke="black" stroke-width="4"/>
<rect x="890.883" y="151.94" width="209.969" height="381.762" transform="rotate(30 890.883 151.94)" fill="black"/>
<rect x="871.953" y="126.635" width="268.063" height="12.4488" transform="rotate(30 871.953 126.635)" fill="black"/>
<rect x="890.154" y="99.1102" width="264.063" height="30.9375" transform="rotate(30 890.154 99.1102)" fill="white" stroke="black" stroke-width="4"/>
<rect x="906.857" y="44.2801" width="285.641" height="74.2894" transform="rotate(30 906.857 44.2801)" fill="white" stroke="black" stroke-width="4"/>
<rect x="987.189" y="2.73205" width="188.541" height="72.3524" transform="rotate(30 987.189 2.73205)" fill="white" stroke="black" stroke-width="4"/>
<rect x="949.595" y="52.9015" width="203.479" height="13.0015" transform="rotate(30 949.595 52.9015)" fill="white" stroke="black" stroke-width="4"/>
<rect x="866.398" y="194.345" width="207.981" height="283.002" transform="rotate(30 866.398 194.345)" fill="white"/>
<line x1="906.943" y1="217.752" x2="765.442" y2="462.839" stroke="black" stroke-width="4"/>
<line x1="986.002" y1="263.398" x2="844.501" y2="508.484" stroke="black" stroke-width="4"/>
<line x1="1045.82" y1="299.085" x2="903.072" y2="546.328" stroke="black" stroke-width="4"/>
<line x1="868.13" y1="195.345" x2="725.385" y2="442.588" stroke="black" stroke-width="4"/>
<line x1="905.738" y1="546.148" x2="723.9" y2="441.164" stroke="black" stroke-width="4"/>
<line x1="1047.24" y1="301.061" x2="865.404" y2="196.077" stroke="black" stroke-width="4"/>
<line x1="470.13" y1="195.345" x2="327.385" y2="442.588" stroke="black" stroke-width="4"/>
</svg>
