<svg width="172" height="548" viewBox="0 0 172 548" fill="none" xmlns="http://www.w3.org/2000/svg">
<rect x="37.2852" y="162.981" width="98.5429" height="63.2593" fill="white" stroke="black" stroke-width="4"/>
<rect x="17.4375" y="129.903" width="134.929" height="63.2593" fill="white" stroke="black" stroke-width="4"/>
<rect x="10.8203" y="219.215" width="148.16" height="75.3881" fill="white" stroke="black" stroke-width="4"/>
<path d="M94.6963 2L119.896 114.877H48.7949L73.3887 2H94.6963Z" fill="white" stroke="black" stroke-width="4"/>
<rect x="2" y="113.364" width="165.802" height="27.9758" fill="white" stroke="black" stroke-width="4"/>
<mask id="path-6-inside-1_450_23" fill="white">
<path d="M172.008 347.221H171.898C171.968 347.474 172.008 347.74 172.008 348.016V544.896C172.008 546.552 170.665 547.895 169.008 547.896H3C1.34315 547.896 0 546.552 0 544.896V348.016C0 346.964 0.541939 346.038 1.36133 345.503L26.0273 293.192H146.527L172.008 347.221Z"/>
</mask>
<path d="M172.008 347.221H171.898C171.968 347.474 172.008 347.74 172.008 348.016V544.896C172.008 546.552 170.665 547.895 169.008 547.896H3C1.34315 547.896 0 546.552 0 544.896V348.016C0 346.964 0.541939 346.038 1.36133 345.503L26.0273 293.192H146.527L172.008 347.221Z" fill="white"/>
<path d="M172.008 347.221V351.221H178.317L175.626 345.514L172.008 347.221ZM171.898 347.221V343.221H166.654L168.041 348.278L171.898 347.221ZM169.008 547.896V551.896H169.008L169.008 547.896ZM1.36133 345.503L3.54978 348.851L4.49678 348.232L4.97929 347.209L1.36133 345.503ZM26.0273 293.192V289.192H23.4911L22.4094 291.486L26.0273 293.192ZM146.527 293.192L150.145 291.486L149.063 289.192H146.527V293.192ZM172.008 347.221V343.221H171.898V347.221V351.221H172.008V347.221ZM171.898 347.221L168.041 348.278C168.024 348.219 168.008 348.129 168.008 348.016H172.008H176.008C176.008 347.352 175.911 346.729 175.756 346.163L171.898 347.221ZM172.008 348.016H168.008V544.896H172.008H176.008V348.016H172.008ZM172.008 544.896H168.008C168.008 544.343 168.456 543.896 169.007 543.896L169.008 547.896L169.008 551.896C172.873 551.895 176.008 548.762 176.008 544.896H172.008ZM169.008 547.896V543.896H3V547.896V551.896H169.008V547.896ZM3 547.896V543.896C3.55228 543.896 4 544.343 4 544.896H0H-4C-4 548.762 -0.865993 551.896 3 551.896V547.896ZM0 544.896H4V348.016H0H-4V544.896H0ZM0 348.016H4C4 348.372 3.81114 348.68 3.54978 348.851L1.36133 345.503L-0.827123 342.155C-2.72726 343.397 -4 345.555 -4 348.016H0ZM1.36133 345.503L4.97929 347.209L29.6453 294.898L26.0273 293.192L22.4094 291.486L-2.25663 343.797L1.36133 345.503ZM26.0273 293.192V297.192H146.527V293.192V289.192H26.0273V293.192ZM146.527 293.192L142.91 294.899L168.39 348.927L172.008 347.221L175.626 345.514L150.145 291.486L146.527 293.192Z" fill="black" mask="url(#path-6-inside-1_450_23)"/>
<rect x="2" y="384.606" width="168.007" height="117.287" fill="#A1ADCB" stroke="black" stroke-width="4"/>
<line x1="33" y1="462" x2="140" y2="462" stroke="white" stroke-width="2"/>
<line x1="46" y1="426" x2="127" y2="426" stroke="white" stroke-width="2"/>
</svg>
