<svg width="520" height="305" viewBox="0 0 520 305" fill="none" xmlns="http://www.w3.org/2000/svg">
<rect x="205.785" y="2.44949" width="270.998" height="31.425" transform="rotate(15 205.785 2.44949)" fill="white" stroke="black" stroke-width="4"/>
<rect x="489.969" y="56.0391" width="51.5593" height="51.0929" transform="rotate(90 489.969 56.0391)" fill="white" stroke="black" stroke-width="4"/>
<mask id="path-3-inside-1_450_24" fill="white">
<path d="M480.372 304.059L480.372 293.08L431.078 293.08L431.078 304.059L-1.73422e-05 304.059L0 105.687L520 105.688L520 244.764L508.401 244.764L508.401 304.056L520 304.056L520 304.059L480.372 304.059Z"/>
</mask>
<path d="M480.372 304.059L480.372 293.08L431.078 293.08L431.078 304.059L-1.73422e-05 304.059L0 105.687L520 105.688L520 244.764L508.401 244.764L508.401 304.056L520 304.056L520 304.059L480.372 304.059Z" fill="white"/>
<path d="M480.372 304.059L476.372 304.059L476.372 308.059L480.372 308.059L480.372 304.059ZM480.372 293.08L484.372 293.08L484.372 289.08L480.372 289.08L480.372 293.08ZM431.078 293.08L431.078 289.08L427.078 289.08L427.078 293.08L431.078 293.08ZM431.078 304.059L431.078 308.059L435.078 308.059L435.078 304.059L431.078 304.059ZM-1.73422e-05 304.059L-4.00002 304.059L-4.00002 308.059L-1.76918e-05 308.059L-1.73422e-05 304.059ZM0 105.687L3.49691e-07 101.687L-4 101.687L-4 105.687L0 105.687ZM520 105.688L524 105.688L524 101.688L520 101.688L520 105.688ZM520 244.764L520 248.764L524 248.764L524 244.764L520 244.764ZM508.401 244.764L508.401 240.764L504.401 240.764L504.401 244.764L508.401 244.764ZM508.401 304.056L504.401 304.056L504.401 308.056L508.401 308.056L508.401 304.056ZM520 304.056L524 304.056L524 300.056L520 300.056L520 304.056ZM520 304.059L520 308.059L524 308.059L524 304.059L520 304.059ZM480.372 304.059L484.372 304.059L484.372 293.08L480.372 293.08L476.372 293.08L476.372 304.059L480.372 304.059ZM480.372 293.08L480.372 289.08L431.078 289.08L431.078 293.08L431.078 297.08L480.372 297.08L480.372 293.08ZM431.078 293.08L427.078 293.08L427.078 304.059L431.078 304.059L435.078 304.059L435.078 293.08L431.078 293.08ZM431.078 304.059L431.078 300.059L-1.69925e-05 300.059L-1.73422e-05 304.059L-1.76918e-05 308.059L431.078 308.059L431.078 304.059ZM-1.73422e-05 304.059L3.99998 304.059L4 105.687L0 105.687L-4 105.687L-4.00002 304.059L-1.73422e-05 304.059ZM0 105.687L-3.49691e-07 109.687L520 109.688L520 105.688L520 101.688L3.49691e-07 101.687L0 105.687ZM520 105.688L516 105.687L516 244.764L520 244.764L524 244.764L524 105.688L520 105.688ZM520 244.764L520 240.764L508.401 240.764L508.401 244.764L508.401 248.764L520 248.764L520 244.764ZM508.401 244.764L504.401 244.764L504.401 304.056L508.401 304.056L512.401 304.056L512.401 244.764L508.401 244.764ZM508.401 304.056L508.401 308.056L520 308.056L520 304.056L520 300.056L508.401 300.056L508.401 304.056ZM520 304.056L516 304.056L516 304.059L520 304.059L524 304.059L524 304.056L520 304.056ZM520 304.059L520 300.059L480.372 300.059L480.372 304.059L480.372 308.059L520 308.059L520 304.059Z" fill="black" mask="url(#path-3-inside-1_450_24)"/>
<rect x="506.398" y="243.555" width="58.5042" height="24.0297" transform="rotate(90 506.398 243.555)" fill="white" stroke="black" stroke-width="4"/>
<rect x="482.234" y="243.555" width="47.2187" height="53.026" transform="rotate(90 482.234 243.555)" fill="#A1ADCB" stroke="black" stroke-width="4"/>
<rect x="278.297" y="107.258" width="194.798" height="276.297" transform="rotate(90 278.297 107.258)" fill="#A1ADCB" stroke="black" stroke-width="4"/>
<line y1="-7.5" x2="35.7621" y2="-7.5" transform="matrix(1 -6.435e-08 -3.34715e-08 -1 21.2383 138.164)" stroke="black" stroke-width="15"/>
<line y1="-3" x2="35.7621" y2="-3" transform="matrix(1 -7.14312e-08 -2.91949e-08 -1 21.1641 157.543)" stroke="black" stroke-width="6"/>
<line y1="-3" x2="35.7621" y2="-3" transform="matrix(1 -7.17518e-08 -2.90846e-08 -1 21.1641 203.68)" stroke="black" stroke-width="6"/>
<line y1="-3" x2="35.7621" y2="-3" transform="matrix(1 -7.23931e-08 -2.8867e-08 -1 21.1641 217.523)" stroke="black" stroke-width="6"/>
<line y1="-2" x2="35.7621" y2="-2" transform="matrix(1 -7.14312e-08 -2.91949e-08 -1 21.2383 229.82)" stroke="black" stroke-width="4"/>
<line y1="-2" x2="35.7621" y2="-2" transform="matrix(1 -7.14312e-08 -2.91949e-08 -1 21.2383 238.82)" stroke="black" stroke-width="4"/>
<line y1="-5" x2="35.7621" y2="-5" transform="matrix(1 -7.14312e-08 -2.91949e-08 -1 21.1641 187.07)" stroke="black" stroke-width="10"/>
<line y1="-2" x2="35.7621" y2="-2" transform="matrix(1 -7.36756e-08 -2.84426e-08 -1 21.1641 270.117)" stroke="black" stroke-width="4"/>
<line y1="-7.5" x2="35.7621" y2="-7.5" transform="matrix(1 -7.27137e-08 -2.87595e-08 -1 21.2383 250.82)" stroke="black" stroke-width="15"/>
</svg>
