<svg width="1226" height="971" viewBox="0 0 1226 971" fill="none" xmlns="http://www.w3.org/2000/svg">
<rect x="1053.81" y="868.587" width="125.346" height="64.1686" rx="32.0843" transform="rotate(127.978 1053.81 868.587)" fill="#A1ADCB" stroke="black" stroke-width="4"/>
<rect x="805.314" y="816.983" width="125.346" height="64.1686" rx="32.0843" transform="rotate(78.8796 805.314 816.983)" fill="#A1ADCB" stroke="black" stroke-width="4"/>
<circle cx="1152.18" cy="76.8167" r="50.4272" transform="rotate(158.132 1152.18 76.8167)" fill="#A1ADCB" stroke="black" stroke-width="4"/>
<path d="M854.631 120.999C847.333 128.924 835.421 131.617 821.662 129.082C807.933 126.553 792.678 118.848 779.242 106.474C765.806 94.1012 756.873 79.5306 753.225 66.0561C749.568 52.5517 751.272 40.4591 758.571 32.5338C765.869 24.6088 777.781 21.917 791.54 24.4515C805.268 26.9804 820.524 34.6851 833.96 47.0583C847.396 59.4316 856.328 74.0029 859.977 87.4774C863.634 100.982 861.93 113.074 854.631 120.999Z" fill="#A1ADCB" stroke="black" stroke-width="4"/>
<circle cx="552" cy="349.634" r="48.3918" transform="rotate(112.838 552 349.634)" fill="#A1ADCB" stroke="black" stroke-width="4"/>
<path d="M577.814 351.959L559.76 370.199L546.796 357.367L543.981 364.306L539.627 362.518L543.203 353.81L530.194 340.934L533.795 337.295L545.258 348.641L549.951 337.167L554.305 338.955L548.897 352.242L559.995 363.228L574.448 348.627L577.814 351.959Z" fill="black"/>
<path d="M579.474 528.61L511.119 544.263C491.163 548.833 471.281 536.36 466.712 516.404C462.142 496.448 474.615 476.566 494.57 471.996L562.925 456.343C582.881 451.773 602.763 464.246 607.333 484.202C611.903 504.158 599.43 524.04 579.474 528.61Z" fill="black" stroke="black" stroke-width="4"/>
<path d="M501.169 511.269C501.005 510.61 500.867 509.975 500.756 509.364C500.675 508.74 500.641 508.149 500.655 507.591L495.545 508.533L494.349 505.6L500.795 504.372C501.273 502.069 502.377 500.03 504.106 498.254C505.877 496.495 508.17 495.042 510.985 493.894C513.445 492.892 515.822 492.407 518.116 492.439C520.41 492.472 522.535 493.022 524.491 494.091C526.459 495.19 528.122 496.81 529.479 498.952L533.672 498.176L534.868 501.11L531.022 501.848C531.275 502.47 531.493 503.09 531.676 503.706C531.888 504.311 532.067 504.878 532.213 505.405L536.299 504.621L537.495 507.555L532.776 508.441C532.821 508.976 532.831 509.508 532.805 510.037C532.82 510.583 532.821 511.136 532.807 511.695L528.277 511.519C528.305 511.162 528.311 510.797 528.297 510.423C528.324 510.066 528.325 509.686 528.298 509.282L506.585 513.364C507.086 514.507 507.666 515.549 508.326 516.49C509.027 517.448 509.773 518.388 510.564 519.31L506.608 520.922C505.716 520.007 504.922 519.035 504.226 518.005C503.56 516.964 502.91 515.708 502.276 514.239L498.172 514.979L496.976 512.045L501.169 511.269ZM524.564 499.867C523.614 498.976 522.522 498.332 521.289 497.936C520.057 497.54 518.733 497.388 517.32 497.481C515.918 497.603 514.432 497.984 512.862 498.624C511.439 499.204 510.196 499.883 509.131 500.663C508.096 501.43 507.261 502.306 506.626 503.291L524.564 499.867ZM528.02 506.182C527.934 505.802 527.833 505.428 527.718 505.06C527.615 504.722 527.497 504.39 527.364 504.064C527.267 503.827 527.156 503.596 527.03 503.371C526.933 503.134 526.801 502.895 526.633 502.652L505.311 506.678C505.25 507.29 505.224 507.906 505.234 508.523C505.274 509.129 505.376 509.762 505.54 510.42L528.02 506.182Z" fill="white"/>
<path d="M1012.6 751.239L955.36 764.347C938.824 768.133 922.349 757.797 918.562 741.261C914.776 724.725 925.111 708.251 941.647 704.464L998.887 691.356C1015.42 687.57 1031.9 697.905 1035.68 714.441C1039.47 730.977 1029.14 747.452 1012.6 751.239Z" fill="black" stroke="black" stroke-width="4"/>
<path d="M943.253 737.854C943.089 737.195 942.951 736.56 942.84 735.949C942.759 735.325 942.725 734.734 942.739 734.176L937.629 735.118L936.433 732.185L942.879 730.957C943.357 728.654 944.46 726.615 946.19 724.838C947.961 723.08 950.254 721.627 953.069 720.479C955.529 719.477 957.906 718.992 960.2 719.024C962.494 719.057 964.619 719.607 966.575 720.676C968.543 721.774 970.206 723.395 971.563 725.537L975.756 724.761L976.952 727.694L973.106 728.433C973.359 729.055 973.577 729.674 973.76 730.291C973.972 730.896 974.151 731.462 974.297 731.99L978.383 731.206L979.579 734.14L974.86 735.026C974.905 735.561 974.915 736.092 974.889 736.621C974.904 737.168 974.905 737.721 974.891 738.279L970.361 738.104C970.389 737.747 970.395 737.382 970.381 737.007C970.408 736.651 970.409 736.27 970.382 735.867L948.669 739.948C949.17 741.092 949.75 742.134 950.41 743.075C951.111 744.033 951.857 744.973 952.648 745.895L948.692 747.507C947.8 746.592 947.006 745.619 946.31 744.59C945.644 743.549 944.994 742.293 944.36 740.823L940.256 741.563L939.06 738.63L943.253 737.854ZM966.648 726.452C965.698 725.56 964.606 724.917 963.373 724.521C962.141 724.125 960.817 723.973 959.404 724.066C958.002 724.188 956.516 724.569 954.946 725.209C953.523 725.789 952.28 726.468 951.215 727.248C950.18 728.015 949.345 728.891 948.71 729.876L966.648 726.452ZM970.103 732.766C970.018 732.387 969.917 732.013 969.802 731.645C969.699 731.307 969.581 730.975 969.448 730.649C969.351 730.412 969.24 730.181 969.114 729.956C969.017 729.719 968.885 729.479 968.717 729.237L947.395 733.263C947.334 733.875 947.308 734.49 947.318 735.108C947.358 735.714 947.46 736.346 947.624 737.005L970.103 732.766Z" fill="white"/>
<path d="M1096.49 503.252C1108.96 499.819 1120.79 499.364 1129.81 501.313C1138.93 503.286 1144.6 507.555 1145.94 513.047C1147.28 518.54 1144.28 525.195 1137.2 531.632C1130.21 537.989 1119.66 543.697 1107.2 547.13C1094.73 550.563 1082.9 551.018 1073.89 549.069C1064.76 547.095 1059.09 542.825 1057.75 537.333C1056.41 531.84 1059.41 525.186 1066.49 518.75C1073.48 512.393 1084.03 506.685 1096.49 503.252Z" stroke="black" stroke-width="4"/>
<path d="M1096.49 503.252C1108.96 499.819 1120.79 499.364 1129.81 501.313C1138.93 503.286 1144.6 507.555 1145.94 513.047C1147.28 518.54 1144.28 525.195 1137.2 531.632C1130.21 537.989 1119.66 543.697 1107.2 547.13C1094.73 550.563 1082.9 551.018 1073.89 549.069C1064.76 547.095 1059.09 542.825 1057.75 537.333C1056.41 531.84 1059.41 525.186 1066.49 518.75C1073.48 512.393 1084.03 506.685 1096.49 503.252Z" stroke="black" stroke-width="4"/>
<path d="M1096.49 503.252C1108.96 499.819 1120.79 499.364 1129.81 501.313C1138.93 503.286 1144.6 507.555 1145.94 513.047C1147.28 518.54 1144.28 525.195 1137.2 531.632C1130.21 537.989 1119.66 543.697 1107.2 547.13C1094.73 550.563 1082.9 551.018 1073.89 549.069C1064.76 547.095 1059.09 542.825 1057.75 537.333C1056.41 531.84 1059.41 525.186 1066.49 518.75C1073.48 512.393 1084.03 506.685 1096.49 503.252Z" stroke="black" stroke-width="4"/>
<path d="M1096.49 503.252C1108.96 499.819 1120.79 499.364 1129.81 501.313C1138.93 503.286 1144.6 507.555 1145.94 513.047C1147.28 518.54 1144.28 525.195 1137.2 531.632C1130.21 537.989 1119.66 543.697 1107.2 547.13C1094.73 550.563 1082.9 551.018 1073.89 549.069C1064.76 547.095 1059.09 542.825 1057.75 537.333C1056.41 531.84 1059.41 525.186 1066.49 518.75C1073.48 512.393 1084.03 506.685 1096.49 503.252Z" stroke="black" stroke-width="4"/>
<line y1="-2" x2="44.5868" y2="-2" transform="matrix(0.192627 0.981272 -0.975254 0.221088 1095.59 503.642)" stroke="black" stroke-width="4"/>
<path d="M1046.49 159.252C1058.96 155.819 1070.79 155.364 1079.81 157.313C1088.93 159.286 1094.6 163.555 1095.94 169.047C1097.28 174.54 1094.28 181.195 1087.2 187.632C1080.21 193.989 1069.66 199.697 1057.2 203.13C1044.73 206.563 1032.9 207.018 1023.89 205.069C1014.76 203.095 1009.09 198.825 1007.75 193.333C1006.41 187.84 1009.41 181.186 1016.49 174.75C1023.48 168.393 1034.03 162.685 1046.49 159.252Z" stroke="black" stroke-width="4"/>
<path d="M1046.49 159.252C1058.96 155.819 1070.79 155.364 1079.81 157.313C1088.93 159.286 1094.6 163.555 1095.94 169.047C1097.28 174.54 1094.28 181.195 1087.2 187.632C1080.21 193.989 1069.66 199.697 1057.2 203.13C1044.73 206.563 1032.9 207.018 1023.89 205.069C1014.76 203.095 1009.09 198.825 1007.75 193.333C1006.41 187.84 1009.41 181.186 1016.49 174.75C1023.48 168.393 1034.03 162.685 1046.49 159.252Z" stroke="black" stroke-width="4"/>
<path d="M1046.49 159.252C1058.96 155.819 1070.79 155.364 1079.81 157.313C1088.93 159.286 1094.6 163.555 1095.94 169.047C1097.28 174.54 1094.28 181.195 1087.2 187.632C1080.21 193.989 1069.66 199.697 1057.2 203.13C1044.73 206.563 1032.9 207.018 1023.89 205.069C1014.76 203.095 1009.09 198.825 1007.75 193.333C1006.41 187.84 1009.41 181.186 1016.49 174.75C1023.48 168.393 1034.03 162.685 1046.49 159.252Z" stroke="black" stroke-width="4"/>
<path d="M1046.49 159.252C1058.96 155.819 1070.79 155.364 1079.81 157.313C1088.93 159.286 1094.6 163.555 1095.94 169.047C1097.28 174.54 1094.28 181.195 1087.2 187.632C1080.21 193.989 1069.66 199.697 1057.2 203.13C1044.73 206.563 1032.9 207.018 1023.89 205.069C1014.76 203.095 1009.09 198.825 1007.75 193.333C1006.41 187.84 1009.41 181.186 1016.49 174.75C1023.48 168.393 1034.03 162.685 1046.49 159.252Z" stroke="black" stroke-width="4"/>
<line y1="-2" x2="44.5868" y2="-2" transform="matrix(0.192627 0.981272 -0.975254 0.221088 1045.59 159.642)" stroke="black" stroke-width="4"/>
<path d="M670.686 571.357C669.653 584.725 658.514 594.602 645.988 593.633C633.462 592.665 623.974 581.193 625.007 567.825C626.041 554.457 637.179 544.58 649.705 545.548C662.231 546.517 671.72 557.989 670.686 571.357Z" stroke="black" stroke-width="4"/>
<line x1="669.318" y1="559.069" x2="629.673" y2="580.604" stroke="black" stroke-width="4"/>
<circle cx="845.5" cy="305.134" r="46.8268" transform="rotate(158.132 845.5 305.134)" fill="#A1ADCB" stroke="black" stroke-width="4"/>
<path d="M671.309 465.327C664.243 457.194 662.889 445.057 666.936 431.664C670.973 418.301 680.325 403.995 694.113 392.016C707.902 380.037 723.374 372.777 737.17 370.647C750.997 368.512 762.826 371.548 769.892 379.681C776.957 387.815 778.31 399.951 774.264 413.344C770.226 426.707 760.876 441.013 747.087 452.992C733.299 464.971 717.826 472.231 704.03 474.361C690.203 476.496 678.375 473.46 671.309 465.327Z" fill="#A1ADCB" stroke="black" stroke-width="4"/>
<rect x="1008.08" y="591.061" width="125.346" height="64.1687" rx="32.0843" transform="rotate(132.802 1008.08 591.061)" fill="#A1ADCB" stroke="black" stroke-width="4"/>
<rect x="759.204" y="500.46" width="125.346" height="64.1686" rx="32.0843" transform="rotate(42.5328 759.204 500.46)" fill="#A1ADCB" stroke="black" stroke-width="4"/>
<rect x="764.866" y="250.922" width="125.346" height="64.1687" rx="32.0843" transform="rotate(124.672 764.866 250.922)" fill="#A1ADCB" stroke="black" stroke-width="4"/>
<path d="M673.68 302.315L706.602 256.068L720.887 266.238C723.182 267.871 724.896 269.693 726.03 271.705C727.199 273.742 727.572 276.05 727.149 278.63C726.786 281.2 725.417 284.153 723.042 287.49C720.79 290.653 718.544 292.851 716.304 294.085C714.099 295.343 711.913 295.803 709.745 295.464C707.577 295.125 705.415 294.189 703.26 292.655C702.669 292.234 702.051 291.742 701.405 291.177C700.819 290.603 700.315 290.061 699.892 289.55L685.046 310.406L682.022 308.253L712.865 264.926L707.547 261.14L676.704 304.467L673.68 302.315Z" fill="black"/>
<path d="M812.151 580.235L808.502 584.095L762.177 540.308L765.826 536.448L812.151 580.235ZM801.952 591.025L798.303 594.886L751.978 551.099L755.627 547.238L801.952 591.025Z" fill="black"/>
<path d="M693.281 422.914L720.204 395.713L747.405 422.636L720.481 449.837L693.281 422.914ZM708.547 434.692L720.464 446.488L744.056 422.653L732.138 410.857L708.547 434.692Z" fill="white"/>
<path d="M920.081 609.719L957.333 599.433L947.628 636.816L920.081 609.719Z" fill="white"/>
<path d="M849.504 279.363C851.083 279.363 852.555 279.469 853.92 279.683C855.285 279.896 856.544 280.195 857.696 280.579C858.848 280.963 859.893 281.389 860.832 281.859L858.848 286.275C857.525 285.677 856.075 285.165 854.496 284.739C852.96 284.312 851.317 284.099 849.568 284.099C847.307 284.099 845.493 284.717 844.128 285.955C842.805 287.192 842.144 289.219 842.144 292.035V297.667H855.072V301.827H842.144V306.819H855.072V311.043H842.08C842.08 312.877 841.888 314.413 841.504 315.651C841.163 316.888 840.651 317.891 839.968 318.659C839.328 319.427 838.581 320.045 837.728 320.515H862.304V325.635H830.112V320.899C831.435 320.6 832.565 320.067 833.504 319.299C834.485 318.531 835.232 317.464 835.744 316.099C836.256 314.733 836.512 313.048 836.512 311.043H830.304V306.819H836.512V301.827H830.304V297.667H836.512V293.443C836.512 290.499 836.96 287.981 837.856 285.891C838.752 283.8 840.139 282.2 842.016 281.091C843.936 279.939 846.432 279.363 849.504 279.363Z" fill="white"/>
<path d="M811.403 194.77C824.64 196.907 833.561 208.825 831.559 221.228C829.557 233.631 817.339 242.137 804.103 240C790.866 237.864 781.945 225.946 783.947 213.543C785.949 201.14 798.166 192.634 811.403 194.77Z" stroke="black" stroke-width="4"/>
<path d="M811.403 194.77C824.64 196.907 833.561 208.825 831.559 221.228C829.557 233.631 817.339 242.137 804.103 240C790.866 237.864 781.945 225.946 783.947 213.543C785.949 201.14 798.166 192.634 811.403 194.77Z" stroke="black" stroke-width="4"/>
<path d="M811.403 194.77C824.64 196.907 833.561 208.825 831.559 221.228C829.557 233.631 817.339 242.137 804.103 240C790.866 237.864 781.945 225.946 783.947 213.543C785.949 201.14 798.166 192.634 811.403 194.77Z" stroke="black" stroke-width="4"/>
<path d="M811.403 194.77C824.64 196.907 833.561 208.825 831.559 221.228C829.557 233.631 817.339 242.137 804.103 240C790.866 237.864 781.945 225.946 783.947 213.543C785.949 201.14 798.166 192.634 811.403 194.77Z" stroke="black" stroke-width="4"/>
<line x1="797.251" y1="195.024" x2="819.117" y2="238.424" stroke="black" stroke-width="4"/>
<path d="M896.403 802.77C909.64 804.907 918.561 816.825 916.559 829.228C914.557 841.631 902.339 850.137 889.103 848C875.866 845.864 866.945 833.946 868.947 821.543C870.949 809.14 883.166 800.634 896.403 802.77Z" stroke="black" stroke-width="4"/>
<path d="M896.403 802.77C909.64 804.907 918.561 816.825 916.559 829.228C914.557 841.631 902.339 850.137 889.103 848C875.866 845.864 866.945 833.946 868.947 821.543C870.949 809.14 883.166 800.634 896.403 802.77Z" stroke="black" stroke-width="4"/>
<path d="M896.403 802.77C909.64 804.907 918.561 816.825 916.559 829.228C914.557 841.631 902.339 850.137 889.103 848C875.866 845.864 866.945 833.946 868.947 821.543C870.949 809.14 883.166 800.634 896.403 802.77Z" stroke="black" stroke-width="4"/>
<path d="M896.403 802.77C909.64 804.907 918.561 816.825 916.559 829.228C914.557 841.631 902.339 850.137 889.103 848C875.866 845.864 866.945 833.946 868.947 821.543C870.949 809.14 883.166 800.634 896.403 802.77Z" stroke="black" stroke-width="4"/>
<line x1="882.251" y1="803.024" x2="904.117" y2="846.424" stroke="black" stroke-width="4"/>
<path d="M1199.41 555.77C1212.65 557.907 1221.57 569.825 1219.57 582.228C1217.56 594.631 1205.35 603.137 1192.11 601C1178.87 598.864 1169.95 586.946 1171.95 574.543C1173.96 562.14 1186.17 553.634 1199.41 555.77Z" stroke="black" stroke-width="4"/>
<path d="M1199.41 555.77C1212.65 557.907 1221.57 569.825 1219.57 582.228C1217.56 594.631 1205.35 603.137 1192.11 601C1178.87 598.864 1169.95 586.946 1171.95 574.543C1173.96 562.14 1186.17 553.634 1199.41 555.77Z" stroke="black" stroke-width="4"/>
<path d="M1199.41 555.77C1212.65 557.907 1221.57 569.825 1219.57 582.228C1217.56 594.631 1205.35 603.137 1192.11 601C1178.87 598.864 1169.95 586.946 1171.95 574.543C1173.96 562.14 1186.17 553.634 1199.41 555.77Z" stroke="black" stroke-width="4"/>
<path d="M1199.41 555.77C1212.65 557.907 1221.57 569.825 1219.57 582.228C1217.56 594.631 1205.35 603.137 1192.11 601C1178.87 598.864 1169.95 586.946 1171.95 574.543C1173.96 562.14 1186.17 553.634 1199.41 555.77Z" stroke="black" stroke-width="4"/>
<line x1="1185.26" y1="556.024" x2="1207.12" y2="599.424" stroke="black" stroke-width="4"/>
<path d="M453.405 411.77C466.642 413.907 475.563 425.825 473.561 438.228C471.559 450.631 459.341 459.137 446.105 457C432.868 454.864 423.947 442.946 425.949 430.543C427.951 418.14 440.168 409.634 453.405 411.77Z" stroke="black" stroke-width="4"/>
<path d="M453.405 411.77C466.642 413.907 475.563 425.825 473.561 438.228C471.559 450.631 459.341 459.137 446.105 457C432.868 454.864 423.947 442.946 425.949 430.543C427.951 418.14 440.168 409.634 453.405 411.77Z" stroke="black" stroke-width="4"/>
<path d="M453.405 411.77C466.642 413.907 475.563 425.825 473.561 438.228C471.559 450.631 459.341 459.137 446.105 457C432.868 454.864 423.947 442.946 425.949 430.543C427.951 418.14 440.168 409.634 453.405 411.77Z" stroke="black" stroke-width="4"/>
<path d="M453.405 411.77C466.642 413.907 475.563 425.825 473.561 438.228C471.559 450.631 459.341 459.137 446.105 457C432.868 454.864 423.947 442.946 425.949 430.543C427.951 418.14 440.168 409.634 453.405 411.77Z" stroke="black" stroke-width="4"/>
<line x1="439.253" y1="412.024" x2="461.119" y2="455.424" stroke="black" stroke-width="4"/>
<rect x="848.408" y="382.126" width="192.064" height="99.3309" rx="49.6655" transform="rotate(16.3248 848.408 382.126)" fill="white" stroke="black" stroke-width="4"/>
<rect x="338.133" y="389.87" width="218.206" height="53.6398" transform="rotate(60 338.133 389.87)" fill="#A1ADCB" stroke="black" stroke-width="4"/>
<rect x="259.707" y="392.706" width="291.717" height="296.73" transform="rotate(60 259.707 392.706)" fill="#A1ADCB" stroke="black" stroke-width="4"/>
<rect x="201.11" y="426.538" width="291.717" height="161.401" transform="rotate(60 201.11 426.538)" fill="white" stroke="black" stroke-width="4"/>
<rect x="295.278" y="399.179" width="244.937" height="26.9083" transform="rotate(60 295.278 399.179)" fill="#A1ADCB" stroke="black" stroke-width="4"/>
<rect x="1094.43" y="306.877" width="151.659" height="78.0365" rx="39.0183" transform="rotate(160.798 1094.43 306.877)" fill="white" stroke="black" stroke-width="4"/>
<circle cx="1128.57" cy="407.2" r="59.9492" transform="rotate(158.132 1128.57 407.2)" fill="#A1ADCB" stroke="black" stroke-width="4"/>
<circle cx="1113.18" cy="790.91" r="50.4272" transform="rotate(158.132 1113.18 790.91)" fill="#A1ADCB" stroke="black" stroke-width="4"/>
<path d="M1054.95 604.712C1067.07 590.31 1088.57 588.461 1102.97 600.582L1149.78 639.976C1164.18 652.097 1166.03 673.599 1153.91 688.001C1141.78 702.403 1120.28 704.252 1105.88 692.131L1059.07 652.737C1044.67 640.616 1042.82 619.114 1054.95 604.712ZM1082 666.635L1085.1 669.156L1124.1 621.156L1121 618.634L1082 666.635Z" fill="black"/>
<path fill-rule="evenodd" clip-rule="evenodd" d="M909.202 216.163C892.09 208.317 884.579 188.085 892.425 170.974L917.922 115.364C925.767 98.2529 945.999 90.7415 963.11 98.5871C980.222 106.433 987.733 126.665 979.888 143.776L954.39 199.386C946.544 216.497 926.313 224.008 909.202 216.163ZM961.677 173.588L963.281 169.923L906.624 145.123L905.02 148.788L961.677 173.588Z" fill="black"/>
<circle cx="1168" cy="239.638" r="41.6979" transform="rotate(94.5164 1168 239.638)" fill="#A1ADCB" stroke="black" stroke-width="4"/>
<path d="M879.832 432.603L876.888 429.467C879.96 426.139 882.84 424.475 885.464 424.475C887.448 424.475 889.112 424.923 890.584 425.819C892.888 427.163 894.488 427.867 895.384 427.867C896.792 427.867 898.456 426.843 900.312 424.731L903.512 427.611C901.144 430.811 898.392 432.411 895.192 432.411C893.4 432.411 891.8 431.963 890.392 431.067C888.28 429.723 886.68 429.083 885.72 429.083C883.992 429.083 882.008 430.235 879.832 432.603ZM890.136 469.275C885.72 469.275 882.072 467.803 879.192 464.795C876.312 461.787 874.84 457.947 874.84 453.275C874.84 448.603 876.312 444.827 879.192 441.819C882.072 438.811 885.72 437.275 890.136 437.275C894.552 437.275 898.2 438.811 901.08 441.819C904.024 444.827 905.496 448.603 905.496 453.275C905.496 457.947 904.024 461.787 901.144 464.795C898.264 467.803 894.552 469.275 890.136 469.275ZM882.968 461.147C884.888 463.195 887.32 464.219 890.2 464.219C893.08 464.219 895.512 463.195 897.368 461.147C899.288 459.035 900.248 456.411 900.248 453.275C900.248 450.139 899.288 447.515 897.368 445.467C895.512 443.355 893.08 442.331 890.2 442.331C887.32 442.331 884.888 443.355 882.968 445.467C881.048 447.515 880.088 450.139 880.088 453.275C880.088 456.411 881.048 459.035 882.968 461.147Z" fill="black"/>
<path d="M1182.45 251.771C1178.78 255.44 1174.36 257.275 1169.2 257.275C1164.04 257.275 1159.62 255.44 1155.95 251.771C1152.28 248.059 1150.45 243.621 1150.45 238.459C1150.45 233.296 1152.28 228.88 1155.95 225.211C1159.62 221.541 1164.04 219.707 1169.2 219.707C1174.36 219.707 1178.78 221.541 1182.45 225.211C1186.12 228.88 1187.95 233.296 1187.95 238.459C1187.95 243.664 1186.12 248.101 1182.45 251.771ZM1158.58 249.147C1161.52 252.048 1165.06 253.499 1169.2 253.499C1173.34 253.499 1176.86 252.048 1179.76 249.147C1182.7 246.203 1184.18 242.661 1184.18 238.523C1184.18 234.384 1182.7 230.864 1179.76 227.963C1176.86 225.019 1173.34 223.547 1169.2 223.547C1165.06 223.547 1161.52 225.019 1158.58 227.963C1155.67 230.864 1154.22 234.384 1154.22 238.523C1154.22 242.661 1155.67 246.203 1158.58 249.147ZM1174.06 240.571L1177.58 242.235C1176.9 243.941 1175.81 245.285 1174.32 246.267C1172.87 247.248 1171.23 247.739 1169.39 247.739C1166.83 247.739 1164.72 246.885 1163.06 245.179C1161.39 243.429 1160.56 241.211 1160.56 238.523C1160.56 235.835 1161.39 233.616 1163.06 231.867C1164.76 230.117 1166.87 229.243 1169.39 229.243C1171.48 229.243 1173.3 229.861 1174.83 231.099C1176.37 232.293 1177.39 233.872 1177.9 235.835L1174.19 237.243C1173.85 236.048 1173.25 235.088 1172.4 234.363C1171.59 233.595 1170.59 233.211 1169.39 233.211C1167.98 233.211 1166.85 233.701 1166 234.683C1165.15 235.664 1164.72 236.944 1164.72 238.523C1164.72 240.059 1165.13 241.296 1165.94 242.235C1166.79 243.173 1167.94 243.643 1169.39 243.643C1170.5 243.643 1171.48 243.387 1172.34 242.875C1173.19 242.32 1173.77 241.552 1174.06 240.571Z" fill="white"/>
<path d="M983.576 321.363L979.928 325.011L970.2 315.283L960.472 325.011L956.824 321.363L966.552 311.635L956.824 301.907L960.472 298.259L970.2 307.987L979.928 298.259L983.576 301.907L973.848 311.635L983.576 321.363Z" fill="black"/>
<line x1="320.732" y1="391.635" x2="436.732" y2="592.635" stroke="black" stroke-width="4"/>
<line x1="334.732" y1="383.635" x2="450.732" y2="584.635" stroke="black" stroke-width="4"/>
<path d="M159.873 532.18L153.675 522.243L180.346 500.969L126.809 523.612L122.948 517.421L181.127 492.789L188.036 503.867L161.66 525.069L197.943 519.75L205.055 531.154L146.876 555.787L143.015 549.596L196.226 527.157L159.873 532.18ZM164.23 585.424C160.928 580.129 159.783 574.847 160.764 569.709C161.827 564.52 164.884 560.351 169.934 557.201C176.369 553.188 183.331 552.014 190.982 553.578C198.633 555.142 204.551 559.37 208.869 566.294C214.305 575.01 213.84 583.333 207.731 587.144C204.717 589.023 201.816 589.814 197.431 588.589C191.408 586.915 183.681 579.968 173.215 564.093C167.807 568.484 166.61 575.454 170.624 581.889C173.875 587.102 179.173 590.699 184.678 590.999L184.347 597.542C176.084 596.812 168.701 592.592 164.23 585.424ZM201.825 569.33C196.541 560.859 187.273 558.154 179.008 561.046C183.103 567.43 186.792 572.257 190.025 575.445C193.309 578.715 195.81 580.549 197.53 580.947C199.3 581.427 200.959 581.184 202.507 580.219C205.357 578.441 204.924 574.299 201.825 569.33ZM211.457 606.725L185.498 617.711L181.536 611.357L224.495 593.162L228.458 599.515C226.106 600.643 224.356 601.282 223.093 601.617C228.974 602.701 233.388 605.605 236.334 610.33C241.161 618.068 239.626 626.492 232.051 631.217C231.155 631.776 230.127 632.304 229.048 632.751L202.06 644.265L198.047 637.83L224.006 626.844C225.004 626.448 225.869 626.021 226.684 625.513C231.897 622.262 232.654 617.49 229.657 612.684C227.879 609.833 225.225 607.755 221.695 606.449C218.297 605.174 214.858 605.283 211.457 606.725ZM226.171 684.736C223.224 680.011 223.686 675.311 227.476 670.684C220.994 670.993 216.467 669.178 213.978 665.187C210.523 659.648 213.429 653.423 221.901 648.139C226.381 645.345 230.972 643.273 235.705 641.792C240.489 640.392 244.977 639.969 249.301 640.553C253.626 641.137 256.687 642.961 258.617 646.057C261.056 649.967 260.32 654.047 256.439 658.164C262.809 658.038 267.61 660.474 270.76 665.525C273.808 670.412 272.703 676.079 267.246 679.483C259.833 684.106 249.453 684.697 238.997 669.382C232.154 673.65 230.003 677.82 232.493 681.811C234.169 684.499 238.106 685.551 242.961 684.446L242.63 690.989C235.424 692.315 229.27 689.705 226.171 684.736ZM263.777 667.39C261.288 663.399 254.399 663.057 244.993 666.661C248.031 670.988 251.021 673.423 254.063 674.128C257.105 674.833 259.669 674.591 261.869 673.22C264.557 671.543 265.149 669.59 263.777 667.39ZM226.617 653.343C221.323 656.646 219.58 659.656 221.256 662.344C222.78 664.788 226.199 665.371 231.481 664.226C236.845 663.03 241.996 660.949 246.802 657.952C251.934 654.751 253.646 651.873 252.02 649.266C250.496 646.823 247.027 646.158 241.694 647.221C236.411 648.366 231.423 650.346 226.617 653.343Z" fill="black"/>
<path d="M562.988 494.778C560.862 479.953 553.806 467.597 544 459.254L581.129 451.156C602.409 446.515 622.304 460.041 625.335 481.18C628.365 502.319 613.438 523.44 592.192 528.073L555.062 536.171C561.949 524.152 565.142 509.561 563.022 494.77L562.988 494.778Z" fill="white" stroke="black" stroke-width="4" stroke-miterlimit="10"/>
<path d="M999.186 723.168C997.406 710.754 991.497 700.407 983.285 693.421L1014.38 686.639C1032.2 682.753 1048.86 694.079 1051.39 711.781C1053.93 729.483 1041.43 747.17 1023.64 751.05L992.549 757.831C998.316 747.766 1000.99 735.548 999.214 723.162L999.186 723.168Z" fill="white" stroke="black" stroke-width="4" stroke-miterlimit="10"/>
<path d="M944.567 460.655C950.978 442.097 950.168 423.41 943.753 407.721L991.831 420.908C1019.39 428.466 1034.44 456.335 1025.3 482.798C1016.16 509.261 986.12 524.763 958.609 517.217L910.531 504.03C925.752 494.229 938.215 479.182 944.611 460.667L944.567 460.655Z" fill="black" stroke="black" stroke-width="4" stroke-miterlimit="10"/>
<path d="M999.599 299.374C1004.02 314.322 1013.16 326.023 1024.55 333.201L987.397 346.86C966.107 354.689 943.523 343.626 937.222 322.311C930.92 300.995 943.175 277.122 964.432 269.306L1001.58 255.647C996.266 269.002 995.156 284.473 999.565 299.387L999.599 299.374Z" fill="#A1ADCB" stroke="black" stroke-width="4" stroke-miterlimit="10"/>
<path d="M1121.65 808.634C1121.65 806.8 1121.69 805.434 1121.78 804.538C1119.26 807.696 1116.02 809.274 1112.05 809.274C1108.29 809.274 1105.18 807.845 1102.7 804.986C1100.23 802.085 1098.99 798.181 1098.99 793.274C1098.99 788.368 1100.23 784.485 1102.7 781.626C1105.18 778.725 1108.29 777.274 1112.05 777.274C1116.06 777.274 1119.3 778.874 1121.78 782.074C1121.69 780.709 1121.65 779.322 1121.65 777.914V774.074H1111.09V769.338H1121.65V765.754H1126.7V769.338H1131.31V774.074H1126.7V787.194C1126.7 797.221 1126.73 804.368 1126.77 808.634H1121.65ZM1119.66 785.082C1117.91 782.949 1115.78 781.882 1113.26 781.882C1110.75 781.882 1108.61 782.949 1106.86 785.082C1105.11 787.173 1104.24 789.904 1104.24 793.274C1104.24 796.645 1105.11 799.397 1106.86 801.53C1108.61 803.621 1110.75 804.666 1113.26 804.666C1115.78 804.666 1117.91 803.621 1119.66 801.53C1121.41 799.397 1122.29 796.645 1122.29 793.274C1122.29 789.904 1121.41 787.173 1119.66 785.082ZM1100.72 818.234V813.114H1125.04V818.234H1100.72Z" fill="black"/>
<path d="M1144.52 390.035V394.771H1111.88V390.035H1144.52ZM1111.94 404.371V399.635H1144.46V404.371H1130.76V431.635H1125.64V404.371H1111.94Z" fill="black"/>
</svg>
