<svg width="1442" height="335" viewBox="0 0 1442 335" fill="none" xmlns="http://www.w3.org/2000/svg">
<rect x="2" y="2" width="362" height="331" stroke="#3A2E2E" stroke-width="4"/>
<rect x="452" y="2" width="272" height="331" stroke="#3A2E2E" stroke-width="4"/>
<rect x="724" y="2" width="270" height="331" stroke="#3A2E2E" stroke-width="4"/>
<rect x="1080" y="2" width="360" height="331" stroke="#3A2E2E" stroke-width="4"/>
<mask id="path-5-inside-1_248_1367" fill="white">
<path d="M363 0H450V335H363V0Z"/>
</mask>
<path d="M363 0H450V335H363V0Z" fill="#00FFBF"/>
<path d="M363 0V-4H359V0H363ZM363 335H359V339H363V335ZM363 0V4H450V0V-4H363V0ZM450 335V331H363V335V339H450V335ZM363 335H367V0H363H359V335H363Z" fill="#3A2E2E" mask="url(#path-5-inside-1_248_1367)"/>
<mask id="path-7-inside-2_248_1367" fill="white">
<path d="M992 0H1079V335H992V0Z"/>
</mask>
<path d="M992 0H1079V335H992V0Z" fill="#00FFBF"/>
<path d="M992 0V-4H988V0H992ZM992 335H988V339H992V335ZM992 0V4H1079V0V-4H992V0ZM1079 335V331H992V335V339H1079V335ZM992 335H996V0H992H988V335H992Z" fill="#3A2E2E" mask="url(#path-7-inside-2_248_1367)"/>
<rect x="454" y="245" width="268" height="86" fill="#A1ADCB"/>
<rect x="726" y="245" width="266" height="86" fill="#A1ADCB"/>
</svg>
